<svg width="36" height="24" viewBox="0 0 36 24" fill="none" xmlns="http://www.w3.org/2000/svg">
<g clip-path="url(#clip0_1455_8465)">
<path d="M0 2C0 0.89543 0.895431 0 2 0H34C35.1046 0 36 0.895431 36 2V22C36 23.1046 35.1046 24 34 24H2C0.895432 24 0 23.1046 0 22V2Z" fill="#006C35"/>
<path fill-rule="evenodd" clip-rule="evenodd" d="M15.5175 5.66823C15.4988 5.6677 15.471 5.67807 15.432 5.70126C15.3442 5.76006 15.1703 5.94126 15.1649 6.14972C15.1597 6.26732 15.1374 6.26689 15.2144 6.34172C15.2701 6.42193 15.3256 6.41406 15.438 6.35526C15.5024 6.30774 15.5242 6.2774 15.546 6.19772C15.5727 6.06409 15.4053 6.26098 15.384 6.11228C15.3465 5.97418 15.4534 5.9174 15.5549 5.78372C15.5573 5.72084 15.5584 5.66948 15.5175 5.66823ZM17.1524 5.67726C17.1211 5.68143 17.0827 5.72166 17.0294 5.81823C16.9912 5.91942 16.8266 6.07249 16.9454 6.38823C17.0426 6.58839 17.0825 6.91378 17.0384 7.27623C16.9711 7.37924 16.9557 7.41471 16.8674 7.51772C16.7434 7.65116 16.609 7.61703 16.506 7.56721C16.4096 7.50231 16.3339 7.469 16.29 7.26274C16.2979 6.93394 16.317 6.39586 16.2569 6.28172C16.1683 6.10489 16.0223 6.1683 15.9599 6.22172C15.6601 6.4959 15.5119 6.95886 15.4214 7.32716C15.3383 7.59567 15.2496 7.51801 15.1874 7.40972C15.0359 7.26774 15.0253 6.15769 14.8424 6.34018C14.5495 7.1773 15.0105 8.09434 15.3299 8.00521C15.5603 8.10063 15.7066 7.66201 15.8009 7.18172C15.8655 7.04694 15.9147 7.03148 15.9479 7.10074C15.9394 7.73943 15.9937 7.8819 16.1579 8.07572C16.5242 8.3583 16.8272 8.11153 16.8509 8.08772L17.1359 7.8027C17.1994 7.73598 17.2833 7.7319 17.3729 7.7907C17.4601 7.8699 17.4489 8.00636 17.6355 8.10126C17.7924 8.16404 18.1277 8.11647 18.2055 7.98126C18.3101 7.80188 18.3354 7.74025 18.3839 7.67223C18.4587 7.57278 18.5865 7.61684 18.5865 7.64823C18.5745 7.70367 18.4995 7.75834 18.5505 7.85823C18.6393 7.92486 18.6599 7.88204 18.7124 7.86721C18.8983 7.77841 19.0379 7.37521 19.0379 7.37521C19.0462 7.22487 18.9606 7.23625 18.9059 7.26721C18.8346 7.31079 18.8303 7.32562 18.7589 7.36921C18.6681 7.3827 18.4921 7.44265 18.4049 7.30772C18.3159 7.14548 18.3155 6.91935 18.2475 6.75572C18.2475 6.74382 18.1286 6.49844 18.2384 6.48274C18.2939 6.49302 18.4131 6.52383 18.4319 6.42418C18.4901 6.32713 18.3064 6.0517 18.1815 5.91274C18.0729 5.79361 17.9231 5.77911 17.7779 5.90074C17.6763 5.99425 17.6914 6.0987 17.6715 6.19772C17.6455 6.31148 17.6505 6.45236 17.7659 6.60274C17.8674 6.80281 18.0517 7.05946 17.9909 7.42172C17.9909 7.42172 17.8839 7.59409 17.6955 7.57172C17.6169 7.55458 17.489 7.5206 17.4209 7.01823C17.3694 6.63793 17.4339 6.10518 17.2724 5.85567C17.236 5.76159 17.2048 5.6702 17.1524 5.67726ZM16.635 5.71758C16.5862 5.7218 16.5321 5.77868 16.488 5.88855C16.4501 5.97207 16.404 6.40906 16.4115 6.40906C16.3813 6.53914 16.5473 6.5942 16.623 6.42706C16.7364 6.12063 16.7369 5.99007 16.7445 5.86009C16.7268 5.76106 16.6838 5.7133 16.635 5.71758ZM18.546 5.75204C18.4958 5.7566 18.4559 5.78598 18.4409 5.86004C18.421 6.03428 18.4312 6.12898 18.4605 6.27404C18.4829 6.37076 18.6237 6.53271 18.693 6.62655C19.024 7.07151 19.3424 7.51854 19.65 7.98106C19.6977 8.31767 19.7332 8.65589 19.7565 8.99506C19.8063 9.7287 19.8215 10.6419 19.776 11.4146C19.9134 11.42 20.1337 11.1926 20.211 10.8596C20.2612 10.3989 20.1931 9.45894 20.1885 9.18706C20.1853 9.07422 20.1783 8.93953 20.1705 8.79855C20.5456 9.4114 20.8944 10.04 21.216 10.6826C21.3402 10.6235 21.3127 9.92425 21.24 9.82604C20.9674 9.23914 20.5906 8.65983 20.4706 8.43702C20.4272 8.35657 20.2795 8.13202 20.1045 7.87302C20.0724 7.50351 20.0373 7.1905 20.0145 7.09599C19.9583 6.70537 20.1751 7.14006 20.1451 6.91302C20.0747 6.52292 19.8594 6.25782 19.6051 5.9005C19.523 5.7843 19.5246 5.76058 19.3981 5.92902C19.3224 6.10066 19.3234 6.24351 19.3455 6.37748C19.3038 6.31645 19.2593 6.25739 19.2121 6.2005C18.9924 6.01206 18.9788 6.00178 18.7965 5.84799C18.7391 5.80719 18.6296 5.74441 18.5461 5.75199L18.546 5.75204ZM24.21 5.8106C24.1855 5.80676 24.1589 5.81876 24.1289 5.86306C24.0717 5.91327 24.0101 6.00418 24.012 6.12106C24.0259 6.32694 24.0626 6.5377 24.0765 6.74358C24.0814 6.77113 24.0866 6.79854 24.0915 6.82609C24.075 6.80471 24.0575 6.78417 24.039 6.76455C23.6377 6.34302 24.2233 6.69567 23.9625 6.37009C23.7419 6.12783 23.6773 6.05074 23.4885 5.90506C23.3938 5.84386 23.3366 5.72694 23.3055 5.92609C23.2931 6.101 23.2802 6.30361 23.292 6.45111C23.2913 6.53305 23.3762 6.68732 23.4495 6.77809C23.728 7.12092 24 7.46898 24.2655 7.82209C24.3233 8.56686 24.3387 9.24961 24.3975 9.99558C24.3891 10.3146 24.291 10.7384 24.198 10.7786C24.198 10.7786 24.0559 10.8602 23.9609 10.7696C23.8919 10.7418 23.616 10.3091 23.616 10.3091C23.4747 10.1796 23.3805 10.2166 23.28 10.3091C23.0027 10.5768 22.8773 11.0782 22.689 11.4236C22.6404 11.5006 22.5036 11.5662 22.3515 11.4176C21.9651 10.8898 22.1911 10.1385 22.143 10.3316C21.7989 10.7193 21.9513 11.3619 22.029 11.5001C22.1425 11.727 22.2342 11.8723 22.455 11.9846C22.6561 12.1326 22.8126 12.0402 22.899 11.9366C23.1013 11.7269 23.104 11.1907 23.199 11.0846C23.2656 10.8897 23.4326 10.9232 23.514 11.0096C23.5929 11.123 23.686 11.1969 23.802 11.2586C23.9907 11.4251 24.216 11.4553 24.438 11.3036C24.5897 11.2185 24.6881 11.1079 24.777 10.8896C24.8723 10.6347 24.8252 9.29876 24.804 8.55558C24.9465 8.75636 25.0872 8.96151 25.227 9.16906C25.2883 9.82143 25.3162 10.4639 25.296 11.08C25.2816 11.2025 25.7235 10.7143 25.7205 10.483C25.7185 10.2807 25.7209 10.0973 25.7205 9.9265C25.9348 10.2687 26.1424 10.6167 26.3385 10.9691C26.46 10.9046 26.4184 10.2165 26.3415 10.1215C26.1362 9.77698 25.8732 9.4046 25.6695 9.1165C25.6292 8.7529 25.5745 8.32393 25.5495 8.1925C25.5106 7.98754 25.4717 7.67972 25.413 7.4365C25.3969 7.34156 25.3482 7.0382 25.3635 7.00902C25.3875 6.94114 25.4779 7.01118 25.5225 6.9325C25.5892 6.85978 25.2912 6.0878 25.14 5.86748C25.0856 5.76874 24.9873 5.80292 24.8655 5.96348C24.7526 6.06918 24.7939 6.31023 24.837 6.53948C24.949 7.12383 25.0489 7.71894 25.128 8.3125C24.9626 8.0664 24.7956 7.8214 24.6269 7.57753C24.6222 7.55305 24.6045 7.46329 24.6045 7.46204C24.6045 7.45153 24.5802 6.98401 24.5595 6.8726C24.5559 6.82734 24.5451 6.81428 24.5925 6.82004C24.6427 6.86233 24.6496 6.86463 24.6809 6.8786C24.7317 6.88786 24.7761 6.80204 24.7455 6.7226C24.5885 6.43302 24.4314 6.14214 24.2745 5.85255C24.2556 5.83398 24.2344 5.81439 24.21 5.8106ZM9.59253 5.82558C9.50555 5.82308 9.40955 5.87698 9.44704 5.98158C9.4252 6.03855 9.61729 6.23118 9.65104 6.33706C9.68128 6.41242 9.62104 6.65516 9.68401 6.67758C9.74195 6.70268 9.82168 6.50953 9.85201 6.33102C9.86881 6.23329 9.85609 5.89868 9.62853 5.83004C9.6167 5.82737 9.60464 5.82591 9.59253 5.82558ZM26.2442 5.8275C26.2244 5.82942 26.2002 5.86148 26.1632 5.93996C26.0742 6.08578 26.0436 6.3469 26.0792 6.57745C26.2936 8.02719 26.4528 9.43105 26.4857 10.716C26.4673 10.8379 26.4619 10.9028 26.4047 11.0565C26.2782 11.2187 26.1387 11.4219 26.0072 11.52C25.8758 11.6179 25.5962 11.7113 25.5047 11.784C25.2146 11.9517 25.2132 12.1445 25.4477 12.1515C25.8519 12.1046 26.3302 12.0714 26.6597 11.574C26.7479 11.4346 26.8517 11.0568 26.8562 10.8255C26.887 9.46964 26.8388 8.14393 26.6357 7.16401C26.6227 7.06849 26.5805 6.84913 26.5967 6.82047C26.6229 6.75337 26.7551 6.82719 26.8022 6.75001C26.8713 6.67945 26.4602 6.15308 26.3162 5.92801C26.2874 5.87146 26.2697 5.82495 26.2442 5.8275ZM22.0052 5.84996C21.9885 5.85284 21.9639 5.87828 21.9183 5.93847C21.8053 6.30769 21.7656 6.60918 21.8087 6.83847C22.0988 8.3521 22.3959 9.7311 22.3487 11.172C22.4863 11.1729 22.6453 10.8573 22.7132 10.545C22.7504 10.1148 22.6884 9.85287 22.6772 9.59996C22.6661 9.3471 22.391 7.29529 22.3352 7.10396C22.268 6.74218 22.6028 7.05639 22.5663 6.84596C22.4505 6.58071 22.1616 6.19441 22.0713 5.96396C22.0373 5.90223 22.0331 5.84516 22.0053 5.84996H22.0052ZM11.6838 5.87847C11.6481 5.88466 11.6137 5.91399 11.6013 5.96247C11.5935 5.9942 11.615 6.047 11.5863 6.06298C11.5698 6.07964 11.5072 6.06846 11.5098 5.98047C11.5098 5.95244 11.4892 5.92321 11.4768 5.9055C11.4643 5.89734 11.4559 5.89494 11.4333 5.89494C11.4058 5.89609 11.4064 5.90334 11.3913 5.92647C11.3846 5.94999 11.3759 5.97303 11.3759 5.99991C11.3725 6.03121 11.3599 6.04182 11.3369 6.04642C11.3112 6.04642 11.3173 6.04921 11.2964 6.03591C11.284 6.02238 11.2694 6.01705 11.2694 5.99391C11.2694 5.96996 11.2632 5.93175 11.256 5.91591C11.245 5.90151 11.2277 5.89398 11.208 5.88894C11.1001 5.88932 11.0922 6.01326 11.0984 6.05991C11.0904 6.0687 11.0863 6.28839 11.2334 6.3494C11.4309 6.44358 11.8011 6.40374 11.7854 6.0854C11.7854 6.05727 11.7792 5.96271 11.7764 5.93689C11.7563 5.88999 11.7191 5.87223 11.6834 5.87842L11.6838 5.87847ZM14.3328 5.8815C14.27 5.88495 14.2086 5.9018 14.1528 5.93094C14.022 6.05626 13.9912 6.25714 14.0943 6.38247C14.1946 6.42985 14.2947 6.53079 14.2278 6.58647C13.9442 6.8894 13.206 7.39561 13.1688 7.48796C13.1685 7.48873 13.1675 7.49026 13.1674 7.49094C13.1672 7.49161 13.1674 7.49334 13.1674 7.49396C13.1674 7.49425 13.1673 7.49521 13.1674 7.49545C13.1677 7.49651 13.1682 7.49753 13.1688 7.49847C13.169 7.49866 13.1701 7.49977 13.1703 7.49991C13.1706 7.5001 13.1715 7.49982 13.1718 7.49991C13.1721 7.5001 13.173 7.50135 13.1733 7.50145C13.1737 7.50154 13.1744 7.50135 13.1748 7.50145L13.1763 7.50294C13.2138 7.52809 13.6757 7.52751 13.7269 7.50442C13.7272 7.50423 13.728 7.50313 13.7283 7.50298C13.7285 7.50284 13.7297 7.50303 13.7298 7.50298C13.7299 7.50284 13.7297 7.50154 13.7298 7.50145C13.8886 7.44294 14.6418 6.58196 14.6418 6.58196C14.6028 6.54855 14.5668 6.52388 14.5278 6.49047C14.486 6.45428 14.4903 6.41871 14.5278 6.38247C14.7144 6.2739 14.6553 6.03505 14.5578 5.92647C14.4771 5.89023 14.4011 5.87804 14.3328 5.8815ZM21.2568 5.88447C21.237 5.88644 21.2128 5.91697 21.1758 5.9955C21.0868 6.14127 21.0263 6.39524 21.0333 6.63294C21.2261 7.96806 21.2853 9.13638 21.4113 10.4715C21.4215 10.6006 21.4026 10.7882 21.3168 10.863C20.9993 11.1945 20.5416 11.6033 20.0433 11.7915C19.9897 11.8517 20.1766 12.1082 20.4183 12.108C20.8226 12.0611 21.1778 11.8342 21.5073 11.2365C21.5955 11.0971 21.7503 10.7988 21.7549 10.5675C21.7857 9.21164 21.6865 8.15742 21.4833 7.1775C21.4704 7.08202 21.4792 6.96913 21.4953 6.94047C21.5215 6.90922 21.6103 6.94119 21.6573 6.86396C21.7264 6.7934 21.4728 6.20852 21.3289 5.98345C21.3001 5.92695 21.2823 5.88193 21.2569 5.88447H21.2568ZM10.5303 5.92527C10.4745 5.9318 10.422 5.97721 10.3968 6.03778C10.3874 6.25191 10.3862 6.46594 10.4103 6.66322C10.5077 7.0094 10.5385 7.31382 10.5857 7.6683C10.5988 8.14302 10.3116 7.87364 10.3248 7.6383C10.3911 7.33254 10.3732 6.85129 10.3143 6.72927C10.2675 6.6073 10.2134 6.57721 10.0997 6.59727C10.0095 6.59175 9.77641 6.84572 9.71123 7.2663C9.71123 7.2663 9.65699 7.4821 9.63323 7.6743C9.60136 7.89145 9.4575 8.04529 9.35723 7.6443C9.27059 7.35284 9.21736 6.63476 9.07225 6.80281C9.03069 7.36345 8.98134 8.35009 9.45774 8.45132C10.034 8.50671 9.71569 7.47721 9.92425 7.2903C9.96366 7.19794 10.0368 7.19626 10.0428 7.31281V8.18732C10.0375 8.47158 10.2245 8.55606 10.3697 8.61481C10.5208 8.60314 10.621 8.60727 10.6803 8.7543C10.7039 9.25839 10.7286 9.76374 10.7523 10.2678C10.7523 10.2678 11.1015 10.3682 11.1183 9.41727C11.135 8.85894 11.0071 8.39041 11.0823 8.28178C11.0849 8.17508 11.2217 8.1698 11.3163 8.22178C11.4669 8.32801 11.5337 8.45876 11.7677 8.4063C12.1239 8.30818 12.3385 8.13529 12.3437 7.86178C12.323 7.60186 12.2929 7.3417 12.1803 7.08178C12.196 7.0345 12.1121 6.91153 12.1277 6.8643C12.1918 6.96452 12.2886 6.95622 12.3108 6.8643C12.2501 6.66452 12.1557 6.4731 12.0033 6.3903C11.8772 6.27922 11.6928 6.30274 11.6253 6.5343C11.5939 6.80108 11.7219 7.11735 11.9163 7.37574C11.9575 7.47673 12.0152 7.64468 11.9897 7.79574C11.8863 7.85478 11.7838 7.8302 11.6972 7.73876C11.6972 7.73876 11.4137 7.52655 11.4137 7.47927C11.489 6.99759 11.43 6.94244 11.3883 6.80871C11.3591 6.62425 11.2717 6.56583 11.2008 6.43974C11.1298 6.36457 11.0336 6.36457 10.9877 6.43974C10.8625 6.65698 10.9212 7.12335 11.0117 7.33225C11.0772 7.52439 11.1775 7.64425 11.1303 7.64425C11.0914 7.75282 11.0103 7.72758 10.9517 7.60225C10.8682 7.34329 10.8512 6.95727 10.8512 6.78327C10.8262 6.56756 10.7982 6.10671 10.6563 5.98983C10.6183 5.93818 10.5736 5.92018 10.5303 5.92527ZM12.5537 5.9283C12.5251 5.9319 12.4935 5.94817 12.4563 5.95676C12.3338 5.99578 12.219 6.10167 12.2552 6.30778C12.4 7.18772 12.4945 7.85929 12.6392 8.73927C12.6615 8.84233 12.5751 8.97817 12.4637 8.96425C12.2744 8.83614 12.2274 8.5767 11.9043 8.58778C11.6703 8.59057 11.4036 8.84511 11.3703 9.0903C11.3313 9.28513 11.3174 9.49638 11.3703 9.6663C11.5347 9.86396 11.7316 9.84289 11.9043 9.7983C12.0462 9.73983 12.1631 9.59991 12.2133 9.63327C12.2134 9.63342 12.2146 9.63308 12.2147 9.63327C12.2149 9.63346 12.2146 9.63457 12.2147 9.63476C12.2457 9.6889 12.2118 10.1466 11.5457 10.5002C11.1364 10.6841 10.8106 10.728 10.6352 10.3937C10.5266 10.1849 10.6431 9.38938 10.3757 9.57322C9.58494 11.6116 12.2284 11.8962 12.5237 9.65722C12.5428 9.5941 12.6011 9.5307 12.6422 9.54625C12.6603 9.55393 12.6768 9.57841 12.6827 9.62425C12.6214 11.6515 10.6376 11.7905 10.3007 11.1528C10.2172 11.0024 10.1921 10.6678 10.1837 10.4673C10.1684 10.3459 10.138 10.276 10.1027 10.2482C10.0224 10.1879 9.91432 10.3454 9.89123 10.6188C9.85777 10.8387 9.86723 10.8991 9.86723 11.1108C9.97302 12.712 12.5259 12.024 12.9407 10.7013C13.1461 10.0175 12.9365 9.50161 13.0052 9.4383C13.0058 9.43782 13.0076 9.43724 13.0082 9.43681L13.0112 9.43532C13.0119 9.43503 13.0134 9.43402 13.0142 9.43378C13.0172 9.43298 13.0202 9.4325 13.0232 9.43234C13.2767 9.70527 13.6323 9.467 13.7102 9.37234C13.7436 9.32492 13.8272 9.29458 13.8857 9.35578C14.0834 9.49786 14.4299 9.4309 14.5022 9.1803C14.544 8.93526 14.5793 8.68302 14.5877 8.42132C14.4589 8.4613 14.355 8.49126 14.3132 8.53532C14.3032 8.54622 14.2959 8.55826 14.2937 8.57132C14.2825 8.6438 14.2719 8.71642 14.2607 8.78881C14.2595 8.79481 14.2576 8.80033 14.2547 8.80532C14.2486 8.81463 14.2404 8.82235 14.2307 8.82783C14.1852 8.8527 14.1058 8.83849 14.1017 8.77234C14.0404 8.49385 13.7884 8.45761 13.6352 8.88932C13.5321 8.97284 13.3443 8.98916 13.3247 8.86383C13.3498 8.5742 13.233 8.53537 12.9992 8.67183C12.924 8.09818 12.8494 7.5505 12.7742 6.97686C12.8716 6.97402 12.9611 7.04473 13.0502 6.93337C12.9537 6.63342 12.7497 6.02314 12.6347 5.96588C12.6338 5.9654 12.6326 5.96473 12.6317 5.96439C12.6245 5.95603 12.6165 5.94847 12.6077 5.94183C12.6056 5.94039 12.6023 5.93857 12.6002 5.93737C12.5954 5.93488 12.5904 5.93287 12.5852 5.93137C12.575 5.92822 12.5643 5.92721 12.5537 5.92839L12.5537 5.9283ZM20.4421 5.93276C20.3409 5.92978 20.2289 5.99353 20.2726 6.12025C20.2471 6.18937 20.4899 6.4239 20.5291 6.55225C20.5995 6.74948 20.4753 6.93759 20.5486 6.96476C20.616 6.99519 20.7099 6.76119 20.7451 6.54476C20.7857 6.36985 20.6609 6.01129 20.4841 5.93727C20.4702 5.93437 20.4562 5.93283 20.4421 5.93276ZM14.2966 6.14876C14.3427 6.14406 14.3984 6.18639 14.4256 6.24625C14.4547 6.31009 14.4401 6.37114 14.3926 6.38276C14.3451 6.39442 14.2837 6.35214 14.2546 6.28825C14.2255 6.22441 14.2401 6.16191 14.2876 6.15025C14.2906 6.14953 14.2936 6.1491 14.2966 6.14881V6.14876ZM25.6966 6.44425C25.6044 6.44103 25.5039 6.51106 25.5436 6.64825C25.5205 6.72313 25.7404 6.97734 25.7761 7.11625C25.8082 7.21513 25.7273 7.53385 25.7941 7.56327C25.8556 7.5962 25.942 7.3431 25.9741 7.10876C25.9919 6.9805 25.8969 6.53041 25.7356 6.45025C25.7229 6.44673 25.7098 6.44472 25.6966 6.44425ZM19.3937 6.60025C19.4022 6.63788 19.4106 6.67575 19.4163 6.71425C19.4352 6.79738 19.4514 6.87994 19.4688 6.96178C19.3959 6.86151 19.3357 6.78049 19.3097 6.75178C19.145 6.55594 19.3134 6.62319 19.3937 6.60025ZM20.8457 7.31425C20.8101 7.32049 20.7757 7.3513 20.7632 7.39978C20.7554 7.43146 20.7785 7.48282 20.7497 7.49876C20.7332 7.51542 20.6691 7.50572 20.6717 7.41778C20.6717 7.38975 20.6511 7.35903 20.6387 7.34127C20.6262 7.33311 20.6178 7.33076 20.5952 7.33076C20.5677 7.33186 20.5683 7.33916 20.5532 7.36225C20.5468 7.38582 20.5383 7.40905 20.5383 7.43578C20.5348 7.46708 20.5238 7.47769 20.5007 7.48225C20.475 7.48225 20.4796 7.48508 20.4587 7.47178C20.4463 7.4582 20.4317 7.45287 20.4317 7.42978C20.4317 7.40578 20.4255 7.36758 20.4183 7.35178C20.4073 7.33738 20.39 7.33134 20.3703 7.32625C20.2624 7.32663 20.256 7.44908 20.2623 7.49578C20.2541 7.50457 20.2487 7.7257 20.3957 7.78676C20.5932 7.88089 20.9649 7.83961 20.9492 7.52127C20.9492 7.4931 20.9415 7.39854 20.9387 7.37276C20.9186 7.32582 20.8814 7.3081 20.8457 7.31425ZM14.216 7.38025C14.1916 7.3778 14.1597 7.38673 14.123 7.40876C13.9484 7.50322 13.8807 7.78335 13.9895 7.94732C14.091 8.09166 14.2516 8.03876 14.273 8.03876C14.4441 8.06017 14.546 7.71778 14.546 7.71778C14.546 7.71778 14.5511 7.6215 14.348 7.80327C14.2625 7.8193 14.2509 7.78839 14.2295 7.7403C14.2117 7.65121 14.2155 7.56092 14.2565 7.47178C14.2754 7.41836 14.2566 7.38438 14.216 7.38025ZM23.588 7.42378C23.491 7.41908 23.3879 7.48186 23.3615 7.6143C23.3619 7.69239 23.3967 7.73535 23.39 7.8063C23.3799 7.84681 23.3381 7.8735 23.2385 7.82578C23.254 7.81143 23.174 7.6983 23.174 7.6983C23.0963 7.65097 22.9925 7.70084 22.925 7.74476C22.8878 7.8123 22.8603 7.92812 22.9025 8.04625C23.014 8.25231 23.3966 8.60391 23.579 8.60727C23.5824 8.42151 23.6004 8.17446 23.6105 8.02076C23.6148 7.96278 23.6284 7.89884 23.684 7.8843C23.7395 7.86975 23.8359 7.94017 23.837 7.87978C23.8269 7.76161 23.8033 7.58718 23.7365 7.50476C23.7023 7.45412 23.6462 7.42662 23.588 7.42378ZM15.8302 8.0703C15.8276 8.07126 15.8251 8.07342 15.8227 8.07476C15.8216 8.07548 15.8194 8.07692 15.8182 8.07778C15.7989 8.09228 15.7761 8.12574 15.7252 8.16178C15.6393 8.25946 15.624 8.32748 15.6292 8.52327C15.6341 8.54401 15.7923 8.98369 15.9262 9.29276C16.0166 9.61402 16.1001 9.98185 16.0387 10.3293C15.8272 10.7886 15.4021 11.2005 14.9918 11.4242C14.7827 11.4912 14.6021 11.4684 14.5538 11.4228L14.5523 11.4213C14.4322 11.3405 14.4294 11.1968 14.4367 11.1722V11.1708L14.4383 11.1693C14.7845 10.9281 15.1801 10.7329 15.4898 10.0818C15.5812 9.83295 15.6091 9.68353 15.5182 9.29881C15.4828 9.15543 15.4391 9.03745 15.3412 8.93578L15.3427 8.93434C15.4017 8.90612 15.5546 9.01878 15.5782 8.94778C15.542 8.76409 15.4176 8.51746 15.2768 8.39127C15.1534 8.27924 15.0192 8.26628 14.9062 8.36881C14.779 8.43956 14.752 8.69377 14.8132 8.9163C14.8813 9.08382 15.0649 9.11314 15.1958 9.4503V9.45174C15.1984 9.4729 15.2406 9.7034 15.1747 9.79676C15.1213 9.96351 14.4344 10.5052 14.3857 10.5378C14.3852 10.5383 14.3817 10.5403 14.3812 10.5408L14.3798 10.5423C14.3796 10.5424 14.3786 10.5434 14.3782 10.5438L14.3767 10.5453H14.3737C14.3732 10.5448 14.3727 10.5443 14.3723 10.5438V10.5423C14.3719 10.5418 14.371 10.5398 14.3707 10.5393C14.3687 10.5258 14.3723 10.4913 14.3707 10.4358C14.3662 10.3343 14.4082 10.1047 14.4052 10.0653V10.0638L14.4038 10.0623V10.0608H14.4022C14.1752 10.2074 14.1002 10.6568 14.0587 10.7898C13.4839 11.187 12.8312 11.4825 12.4552 11.8848C12.2595 12.1906 13.8042 11.5337 13.9838 11.4543C13.9853 11.4554 13.9868 11.4573 13.9883 11.4588C14.0223 11.4963 14.0253 11.6273 14.1278 11.7453C14.2883 11.9628 14.6296 12.0968 14.9618 12.0138C15.5187 11.8125 15.8396 11.4329 16.1663 11.0118C16.213 10.9439 16.2861 10.8903 16.3538 10.9428C16.5783 11.4454 17.2255 11.803 18.0623 11.8398C18.2559 11.6043 18.1633 11.4886 18.0848 11.4393C18.0606 11.4232 17.6686 11.2705 17.6078 11.1183C17.5695 10.9767 17.6626 10.8512 17.8493 10.7568C18.3866 10.6919 18.9147 10.6197 19.4258 10.4554C19.431 10.2836 19.5321 10.0268 19.5998 9.91537C19.6468 9.83794 19.677 9.83031 19.6883 9.81937L19.6898 9.81783C19.6899 9.81764 19.6911 9.81654 19.6912 9.81634C19.6916 9.8161 19.6925 9.8151 19.6928 9.81486V9.81183C19.6931 9.80847 19.6928 9.80257 19.6913 9.79686L19.6043 9.74583L17.8898 9.73834C17.8686 9.73018 17.8528 9.72202 17.8433 9.71434C17.8425 9.71372 17.8409 9.71194 17.8403 9.71132L17.8388 9.70988L17.8373 9.70834C17.8371 9.70782 17.836 9.70585 17.8358 9.70532L17.8343 9.70388V9.70234L17.8328 9.70086V9.69937V9.69783V9.69486V9.69337V9.69188V9.69034V9.6889C17.8331 9.68857 17.834 9.68766 17.8343 9.68737C17.8347 9.6866 17.8352 9.68516 17.8358 9.68439C17.8442 9.67311 17.8645 9.66246 17.8898 9.65286C18.2992 9.59708 19.0265 9.47785 19.0748 8.77834C19.0672 8.41402 18.9189 8.17546 18.4719 8.10932C18.1433 8.13476 17.9091 8.45252 17.9468 8.80234C17.9311 8.89657 17.9787 9.08142 17.8823 9.10234C17.2522 9.15994 16.5644 9.55474 16.5413 9.83732H16.5398L16.5383 9.83881L16.5353 9.84034H16.5323C16.5313 9.84068 16.5288 9.84154 16.5278 9.84178H16.5233C16.5218 9.84183 16.5203 9.84183 16.5188 9.84178C16.5171 9.8415 16.5142 9.84068 16.5128 9.84034C16.4718 9.82897 16.419 9.76129 16.4273 9.66634C16.4033 9.17785 16.2443 8.62508 15.9953 8.19937C15.9064 8.11052 15.8677 8.07452 15.8423 8.07034C15.8415 8.07025 15.8401 8.07039 15.8393 8.07034H15.8303L15.8302 8.0703ZM17.4712 8.3283C17.4356 8.33444 17.4012 8.36382 17.3887 8.4123C17.3809 8.44398 17.404 8.49678 17.3752 8.51276C17.3587 8.52942 17.2946 8.51972 17.2972 8.43178C17.2972 8.40375 17.2767 8.37303 17.2642 8.35527C17.2517 8.34711 17.2448 8.34476 17.2222 8.34476C17.1947 8.34591 17.1939 8.35316 17.1787 8.3763C17.1723 8.39982 17.1638 8.4231 17.1638 8.44974C17.1603 8.48108 17.1493 8.49169 17.1262 8.4963C17.1005 8.4963 17.1066 8.49908 17.0858 8.48574C17.0734 8.47225 17.0572 8.46692 17.0572 8.44378C17.0572 8.41983 17.0524 8.38162 17.0452 8.36578C17.0343 8.35138 17.0155 8.34534 16.9958 8.3403C16.8879 8.34068 16.8815 8.46308 16.8878 8.50974C16.8796 8.51857 16.8742 8.7397 17.0212 8.80076C17.2187 8.89494 17.6892 8.8395 17.5747 8.53532C17.5747 8.50714 17.5671 8.41258 17.5642 8.38676C17.5441 8.33986 17.5069 8.3221 17.4712 8.3283ZM24.0938 8.59978C24.0883 8.59885 24.0826 8.59936 24.0773 8.60127C24.0773 8.60127 23.1625 9.25215 23.1399 9.27476C23.0491 9.3554 23.0945 9.63903 23.1399 9.60625C23.2054 9.63145 24.1264 9.0073 24.1088 8.93425C24.149 8.93665 24.1683 8.61318 24.0938 8.59978ZM18.3357 8.69626C18.3731 8.69228 18.422 8.70495 18.4692 8.73226C18.5375 8.77177 18.5796 8.83143 18.5742 8.87478C18.574 8.87593 18.5745 8.87814 18.5742 8.87924C18.5739 8.88039 18.5715 8.8826 18.5712 8.88375C18.5708 8.88486 18.5702 8.88716 18.5697 8.88826C18.5694 8.88898 18.5686 8.89057 18.5682 8.89124L18.5667 8.89426C18.5642 8.8981 18.5611 8.90163 18.5577 8.90478C18.5249 8.9354 18.4491 8.93103 18.3777 8.88975C18.31 8.85063 18.2683 8.79049 18.2727 8.74724C18.2729 8.74609 18.274 8.74388 18.2742 8.74278C18.2753 8.7374 18.2775 8.7325 18.2802 8.72775C18.2812 8.72607 18.2821 8.72329 18.2832 8.72175L18.2847 8.72026C18.287 8.71758 18.2896 8.71508 18.2922 8.71278C18.3031 8.70418 18.3185 8.69809 18.3357 8.69626ZM10.324 8.86124C9.85 8.86988 9.15582 9.4826 9.13753 9.82273C9.63774 9.58254 10.1291 9.35137 10.6375 9.10273C10.5555 8.98023 10.6325 8.86988 10.324 8.86129V8.86124ZM11.86 9.07426C11.9065 9.07474 11.9556 9.09774 11.9815 9.16278C12.005 9.22239 11.9826 9.28479 11.9546 9.31575C11.9544 9.31599 11.9547 9.317 11.9546 9.31724C11.9541 9.31796 11.9535 9.31964 11.9531 9.32026C11.9331 9.3459 11.8633 9.33524 11.8135 9.33524C11.7533 9.3326 11.7237 9.32276 11.6875 9.2738C11.6703 9.21932 11.7229 9.16585 11.7461 9.12524C11.7463 9.12486 11.7473 9.12414 11.7475 9.1238C11.7501 9.11996 11.7542 9.11545 11.7581 9.1118C11.776 9.09529 11.8072 9.07988 11.8406 9.0758C11.847 9.07498 11.8534 9.07417 11.86 9.07426ZM23.9157 9.2629C23.8314 9.27327 23.7513 9.353 23.7882 9.48039C23.7651 9.55527 23.9026 9.81697 23.9382 9.95588C23.9703 10.0548 23.897 10.3345 23.9637 10.3639C24.0252 10.3969 24.1869 10.1978 24.1812 9.94839C24.199 9.82014 24.1355 9.34758 23.9742 9.26737C23.9552 9.26207 23.9353 9.26054 23.9157 9.26286V9.2629ZM13.6768 9.7249C13.6023 9.73009 13.5359 9.76993 13.5659 9.8749C13.5614 9.95103 13.7764 10.0436 13.7894 10.2199C13.8201 10.2926 13.7434 10.5253 13.8074 10.5469C13.8661 10.5711 13.9476 10.3861 13.9783 10.2139C13.9954 10.1196 13.9046 9.7898 13.7503 9.7309C13.7262 9.72548 13.7015 9.72346 13.6768 9.7249ZM16.7414 10.1434C16.747 10.143 16.752 10.1434 16.7579 10.1434H16.7608C16.9519 10.1953 17.2335 10.2007 17.4779 10.2259C17.677 10.2386 17.7753 10.3944 17.5889 10.4599C17.405 10.5229 17.2282 10.5721 17.2274 10.8379C17.2515 10.9696 17.2465 11.0387 17.2259 11.0704C17.2243 11.0728 17.2217 11.076 17.2199 11.0779L17.2184 11.0794L17.2169 11.0809L17.2154 11.0824L17.2139 11.0839L17.2109 11.0854C17.208 11.0872 17.205 11.0887 17.2019 11.0899C17.1993 11.0907 17.1956 11.0909 17.1929 11.0914C17.1492 11.0978 17.0857 11.0561 17.0384 11.0314C16.925 10.95 16.6067 10.7527 16.5614 10.3294C16.5549 10.2338 16.6264 10.1515 16.7414 10.1434L16.7414 10.1434ZM9.25624 10.4689C9.24429 10.4693 9.22043 10.505 9.18875 10.5454C8.90675 10.9947 8.88165 11.6653 9.03726 11.8654C9.11992 11.96 9.25624 12.0015 9.35675 11.9719C9.53387 11.8951 9.61177 11.5362 9.56973 11.4049C9.51064 11.3124 9.46379 11.2977 9.40475 11.3764C9.28005 11.6295 9.22816 11.4564 9.21726 11.315C9.19811 11.0466 9.22413 10.7996 9.25326 10.604C9.26877 10.5037 9.26814 10.4686 9.25624 10.469V10.4689ZM18.8639 11.0588C18.8411 11.0574 18.8183 11.0621 18.7979 11.0723C18.7935 11.0723 18.596 11.2058 18.5324 11.2988C18.4936 11.3283 18.498 11.354 18.5099 11.4053C18.5402 11.4748 18.5934 11.453 18.6539 11.4203C18.7342 11.4094 18.773 11.4619 18.7664 11.5583C18.7294 11.6785 18.7829 11.7233 18.7829 11.7308C18.7829 11.7384 18.8602 11.8047 18.9509 11.7518C19.1424 11.6787 19.2617 11.6076 19.5299 11.5493C19.6003 11.5479 19.5962 11.3595 19.4849 11.3528C19.3396 11.3601 19.2056 11.3676 19.0604 11.4818C18.9711 11.5024 18.9557 11.4481 18.9359 11.3993C18.9132 11.2783 18.987 11.193 18.9719 11.1023C18.9759 11.1063 18.9268 11.0621 18.8639 11.0588ZM25.0156 11.2883C24.98 11.2894 24.9424 11.2944 24.8881 11.2988C24.8293 11.3113 24.8088 11.337 24.7981 11.4083C24.8023 11.5164 24.8684 11.511 24.9361 11.5538C24.9753 11.6037 25.0008 11.6488 24.9331 11.7308C24.869 11.7896 24.8233 11.822 24.7591 11.8808C24.7288 11.9325 24.7099 12.0119 24.8026 12.0368C24.9737 12.0849 25.3696 11.8277 25.3696 11.8223C25.4337 11.7742 25.4125 11.6828 25.407 11.6828C25.3697 11.6401 25.2853 11.6657 25.2286 11.6588C25.2016 11.6588 25.1129 11.6457 25.1551 11.5673C25.1903 11.5186 25.2032 11.4894 25.2271 11.4293C25.2538 11.3705 25.2303 11.3309 25.1341 11.2988C25.0851 11.2899 25.0512 11.2872 25.0156 11.2883ZM22.4457 16.4915C22.4453 16.4917 22.4446 16.4928 22.4442 16.493C22.1596 16.566 22.1685 16.8614 22.3512 16.991C19.3467 16.991 14.736 16.94 13.7472 16.94C13.194 16.94 11.4438 16.874 11.4101 16.874C11.7855 17.423 12.3292 17.5348 13.0407 17.546C14.3751 17.546 20.5585 17.5295 22.3181 17.5295C22.193 17.7517 22.3295 18.1091 22.4276 18.1745C22.4297 18.1759 22.4331 18.178 22.4351 18.179C22.4388 18.1809 22.4436 18.1826 22.4471 18.1835C22.4483 18.1838 22.4505 18.1834 22.4516 18.1835C22.5681 18.211 22.6194 18.1267 22.6586 18.065C22.8476 18.0817 23.9113 18.0971 24.0086 18.0635C24.0089 18.0634 24.0098 18.0622 24.0101 18.0621C24.0759 18.1589 24.1413 18.2505 24.2666 18.2345C24.4859 18.1875 24.6586 18.1636 24.6641 17.7185C24.6641 17.7185 24.6417 16.96 24.1436 17.0076C24.0257 17.0254 23.6951 17.0586 23.6951 17.0586C23.3125 17.013 23.0318 17.0084 22.6016 16.9926C22.6413 16.9422 22.7114 16.738 22.6256 16.6641C22.6032 16.6454 22.5699 16.6351 22.5236 16.6386H22.5221C22.5215 16.6385 22.5197 16.6387 22.5191 16.6386C22.5188 16.6385 22.5179 16.6371 22.5176 16.637C22.5164 16.6366 22.5143 16.6363 22.5131 16.6356C22.5103 16.6334 22.5078 16.6309 22.5056 16.6281C22.5051 16.6274 22.5031 16.6258 22.5026 16.625C22.4809 16.5934 22.469 16.5158 22.4546 16.4961L22.4531 16.4946L22.4516 16.493C22.4507 16.4925 22.4496 16.492 22.4486 16.4916H22.4471C22.4469 16.4916 22.4458 16.4915 22.4456 16.4916L22.4457 16.4915ZM22.6497 17.576C22.6502 17.5758 22.6506 17.5763 22.6512 17.576C23.0895 17.5974 23.5013 17.5802 23.9397 17.6015C24.0092 17.6606 23.9744 17.7959 23.9292 17.8205C23.9268 17.8217 23.9243 17.8227 23.9217 17.8235C23.92 17.8239 23.9174 17.8235 23.9157 17.8235C23.914 17.8235 23.9114 17.8239 23.9097 17.8235C23.7671 17.82 23.6847 17.8166 23.5422 17.813C23.5421 17.8059 23.5411 17.7989 23.5392 17.792C23.5054 17.6919 23.2608 17.6986 23.2032 17.777L23.2002 17.7815C23.1992 17.7831 23.198 17.7859 23.1972 17.7875C23.1963 17.7896 23.1949 17.7929 23.1942 17.795C23.1933 17.798 23.1931 17.8024 23.1927 17.8055C23.1923 17.8091 23.1909 17.8137 23.1912 17.8175C22.9988 17.8406 22.8256 17.8111 22.6332 17.8041C22.5767 17.7338 22.5833 17.6066 22.6497 17.5761V17.576Z" fill="white"/>
</g>
<defs>
<clipPath id="clip0_1455_8465">
<rect width="36" height="24" fill="white"/>
</clipPath>
</defs>
</svg>
