<svg fill="none" height="147" viewBox="0 0 110 147" width="110" xmlns="http://www.w3.org/2000/svg" xmlns:xlink="http://www.w3.org/1999/xlink"><filter id="a" color-interpolation-filters="sRGB" filterUnits="userSpaceOnUse" height="147" width="110" x="0" y="0"><feFlood flood-opacity="0" result="BackgroundImageFix"/><feColorMatrix in="SourceAlpha" result="hardAlpha" type="matrix" values="0 0 0 0 0 0 0 0 0 0 0 0 0 0 0 0 0 0 127 0"/><feOffset dy="-4"/><feGaussianBlur stdDeviation="5"/><feColorMatrix type="matrix" values="0 0 0 0 0.207843 0 0 0 0 0.286275 0 0 0 0 0.368627 0 0 0 0.25 0"/><feBlend in2="BackgroundImageFix" mode="normal" result="effect1_dropShadow_420_4117"/><feBlend in="SourceGraphic" in2="effect1_dropShadow_420_4117" mode="normal" result="shape"/></filter><g fill="#00cb71" filter="url(#a)"><path d="m51.2946 80.0416c.4129.604.9653 1.0978 1.6097 1.439.6445.3411 1.3616.5194 2.0896.5194s1.4451-.1783 2.0896-.5194c.6444-.3412 1.1968-.835 1.6097-1.439l40.5032-58.9293c.4688-.6797.7437-1.4758.7949-2.3018.0507-.8261-.1234-1.6504-.5047-2.3835-.3813-.7332-.9548-1.347-1.6582-1.7749-.7033-.4279-1.5097-.6534-2.3313-.6521h-81.0064c-.8197.0034-1.6231.2319-2.3236.6608-.7005.4288-1.2717 1.042-1.6521 1.7734-.3805.7314-.55574 1.5535-.507 2.3777.0487.8243.3195 1.6196.7834 2.3004z"/><path d="m51.2946 139.042c.4129.604.9653 1.097 1.6097 1.439.6445.341 1.3616.519 2.0896.519s1.4451-.178 2.0896-.519c.6444-.342 1.1968-.835 1.6097-1.439l40.5032-58.9297c.4688-.6797.7437-1.4758.7949-2.3018.0507-.8261-.1234-1.6504-.5047-2.3835-.3813-.7332-.9548-1.347-1.6582-1.7749-.7033-.4279-1.5097-.6534-2.3313-.6521h-81.0064c-.8197.0034-1.6231.2319-2.3236.6608-.7005.4288-1.2717 1.042-1.6521 1.7734-.3805.7314-.55574 1.5535-.507 2.3777.0487.8243.3195 1.6196.7834 2.3004z"/></g></svg>