<svg fill="none" height="20" viewBox="0 0 20 20" width="20" xmlns="http://www.w3.org/2000/svg"><g fill="#fff"><path d="m10 14c1.0609 0 2.0783-.4214 2.8284-1.1716.7502-.7501 1.1716-1.7675 1.1716-2.8284 0-1.06087-.4214-2.07828-1.1716-2.82843-.7501-.75014-1.7675-1.17157-2.8284-1.17157z"/><path clip-rule="evenodd" d="m10 0c-5.523 0-10 4.477-10 10s4.477 10 10 10 10-4.477 10-10-4.477-10-10-10zm0 2v4c-1.06087 0-2.07828.42143-2.82843 1.17157-.75014.75015-1.17157 1.76756-1.17157 2.82843 0 1.0609.42143 2.0783 1.17157 2.8284.75015.7502 1.76756 1.1716 2.82843 1.1716v4c2.1217 0 4.1566-.8429 5.6569-2.3431 1.5002-1.5003 2.3431-3.5352 2.3431-5.6569 0-2.12173-.8429-4.15656-2.3431-5.65685-1.5003-1.5003-3.5352-2.34315-5.6569-2.34315z" fill-rule="evenodd"/></g></svg>