<svg fill="none" height="20" viewBox="0 0 20 20" width="20" xmlns="http://www.w3.org/2000/svg"><path d="m10 11.4 2.9 2.9c.1833.1833.4167.275.7.275s.5167-.0917.7-.275.275-.4167.275-.7-.0917-.5167-.275-.7l-2.9-2.9 2.9-2.9c.1833-.18333.275-.41667.275-.7s-.0917-.51667-.275-.7-.4167-.275-.7-.275-.5167.09167-.7.275l-2.9 2.9-2.9-2.9c-.18333-.18333-.41667-.275-.7-.275s-.51667.09167-.7.275-.275.41667-.275.7.09167.51667.275.7l2.9 2.9-2.9 2.9c-.18333.1833-.275.4167-.275.7s.09167.5167.275.7.41667.275.7.275.51667-.0917.7-.275zm0 8.6c-1.38333 0-2.68333-.2627-3.9-.788s-2.275-1.2377-3.175-2.137c-.9-.9-1.61233-1.9583-2.137-3.175-.524667-1.2167-.78733333-2.5167-.788-3.9 0-1.38333.262667-2.68333.788-3.9.52533-1.21667 1.23767-2.275 2.137-3.175.9-.9 1.95833-1.61233 3.175-2.137 1.21667-.524667 2.51667-.78733333 3.9-.788 1.3833 0 2.6833.262667 3.9.788 1.2167.52533 2.275 1.23767 3.175 2.137.9.9 1.6127 1.95833 2.138 3.175s.7877 2.51667.787 3.9c0 1.3833-.2627 2.6833-.788 3.9s-1.2377 2.275-2.137 3.175c-.9.9-1.9583 1.6127-3.175 2.138s-2.5167.7877-3.9.787zm0-2c2.2333 0 4.125-.775 5.675-2.325s2.325-3.4417 2.325-5.675c0-2.23333-.775-4.125-2.325-5.675s-3.4417-2.325-5.675-2.325c-2.23333 0-4.125.775-5.675 2.325s-2.325 3.44167-2.325 5.675c0 2.2333.775 4.125 2.325 5.675s3.44167 2.325 5.675 2.325z" fill="#fff"/></svg>