<svg fill="none" height="20" viewBox="0 0 20 20" width="20" xmlns="http://www.w3.org/2000/svg" xmlns:xlink="http://www.w3.org/1999/xlink"><linearGradient id="a" gradientUnits="userSpaceOnUse" x1="10" x2="17.2445" y1="11.0361" y2="11.0361"><stop offset="0"/><stop offset="1" stop-color="#fff" stop-opacity="0"/></linearGradient><path d="m15.9092 16.8855v.1774c0 .3215-.2606.5824-.5825.5824h-10.65309c-.32188 0-.58242-.2609-.58242-.5824v-.1774c0-.3215.26054-.582.58242-.582h10.65309c.3219 0 .5825.2605.5825.582z" fill="#c98b0e"/><path d="m15.9092 16.8855v.1774c0 .0668-.0114.1312-.0325.191-.0789-.2274-.2953-.3906-.55-.3906h-10.65309c-.25469 0-.4711.1632-.55.3906-.0211-.0598-.03242-.1242-.03242-.191v-.1774c0-.3215.26054-.582.58242-.582h10.65309c.3219 0 .5825.2605.5825.582z" fill="#000" opacity=".2"/><path d="m3.54402 8.47263c-.16641.29726-.45.52031-.78828.60625-.09961.02539-.2043.03906-.31211.03906-.6961 0-1.26016-.56406-1.26016-1.26016 0-.69609.56406-1.26015 1.26016-1.26015.69609 0 1.26015.56406 1.26015 1.26015 0 .22344-.0582.43321-.15976.61485z" fill="#2fc1f1"/><path d="m10.0002 2.35468c.9508 0 1.7215.7707 1.7215 1.72148 0 .84336-.6071 1.5457-1.4086 1.69258-.1016.01875-.2059.02851-.3129.02851-.10706 0-.21136-.00976-.31292-.02851-.80156-.14688-1.40859-.84922-1.40859-1.69258 0-.95078.7707-1.72148 1.72151-1.72148z" fill="#dd6475"/><path d="m8.83093 4.2519c-.04662 0-.09133-.01852-.12429-.05149-.03297-.03296-.05149-.07768-.05149-.1243 0-.74156.60332-1.34488 1.34485-1.34488.0467 0 .0914.01852.1243.05149.033.03296.0515.07767.0515.12429s-.0185.09133-.0515.1243c-.0329.03296-.0776.05148-.1243.05148-.54766 0-.99329.44563-.99329.99332 0 .04662-.01852.09134-.05148.1243-.03297.03297-.07768.05149-.1243.05149z" fill="#fff"/><path d="m16.4565 8.47263c-.105-.18788-.16-.3996-.1597-.61485 0-.69609.564-1.26015 1.2601-1.26015s1.2606.56406 1.2606 1.26015c0 .6961-.5645 1.26016-1.2606 1.26016-.1078 0-.2125-.01367-.3121-.03906-.3383-.08594-.6219-.30899-.7883-.60625z" fill="#77d379"/><path d="m17.2448 9.07889v.00039l-1.8461 7.22422h-10.79687l-1.84609-7.22422v-.00039c.33828-.08593.62187-.30898.78828-.60625.53594.21211 1.12031.32774 1.73164.32774 2.01289 0 3.73125-1.2586 4.41172-3.03086v-.00078c.10156.01875.20586.02851.31292.02851.107 0 .2113-.00976.3129-.02851v.00078c.6804 1.77266 2.3988 3.03086 4.4117 3.03086.6113 0 1.1957-.11563 1.7316-.32774.1664.29727.45.52032.7883.60625z" fill="#ffc035"/><path d="m16.6742 8.03368c-.0466 0-.0913-.01852-.1243-.05148-.033-.03297-.0515-.07768-.0515-.1243 0-.58383.475-1.05883 1.0588-1.05883.0466 0 .0913.01852.1243.05149.033.03296.0515.07767.0515.12429s-.0185.09133-.0515.1243c-.033.03296-.0777.05148-.1243.05148-.39 0-.7072.31727-.7072.70727 0 .04662-.0185.09133-.0515.1243-.033.03296-.0777.05148-.1243.05148z" fill="#fff"/><path d="m1.56042 8.03368c-.04662 0-.09133-.01852-.12429-.05148-.03297-.03297-.05149-.07768-.05149-.1243 0-.58383.475-1.05883 1.05879-1.05883.04662 0 .09133.01852.1243.05149.03296.03296.05148.07767.05148.12429s-.01852.09133-.05148.1243c-.03297.03296-.07768.05148-.1243.05148-.38996 0-.70722.31727-.70722.70727 0 .04662-.01852.09133-.05149.1243-.03296.03296-.07768.05148-.1243.05148z" fill="#fff"/><path d="m17.2445 9.07889v.00039l-1.8461 7.22422h-5.3984v-10.50625c.107 0 .2113-.00976.3129-.02851v.00078c.6805 1.77266 2.3988 3.03086 4.4117 3.03086.6113 0 1.1957-.11563 1.7317-.32774.1664.29727.4499.52032.7882.60625z" fill="url(#a)" opacity=".1"/></svg>