<svg width="24" height="24" viewBox="0 0 24 24" fill="none" xmlns="http://www.w3.org/2000/svg">
<path d="M18.9285 0H5.07149C2.27058 0 0 2.27067 0 5.07157V18.9284C0 21.7293 2.27058 24 5.07149 24H18.9285C21.7294 24 24 21.7293 24 18.9284V5.07157C24 2.27067 21.7294 0 18.9285 0Z" fill="#41B883"/>
<g clip-path="url(#clip0_1056_1027)">
<path d="M14.1908 16.9992H10.8088C10.4 16.9992 10.0674 17.3319 10.0674 17.7406V18.543C10.0674 18.7969 10.2756 19.0026 10.527 19.0026H14.4676C14.7215 19.0026 14.9271 18.7969 14.9271 18.543V17.7406C14.9297 17.3293 14.5971 16.9992 14.1908 16.9992ZM12.1266 13.2592C12.1266 13.4649 12.2941 13.6324 12.4998 13.6324C12.7055 13.6324 12.873 13.4649 12.873 13.2592C12.873 13.0561 12.708 12.8834 12.4973 12.8834C12.2916 12.886 12.1266 13.0535 12.1266 13.2592Z" fill="white"/>
<path d="M12.678 9.24493C12.6653 9.22715 12.6374 9.23477 12.6374 9.25762V12.6295C12.9268 12.693 13.1477 12.9494 13.1477 13.2617C13.1477 13.6172 12.8583 13.9041 12.5028 13.9041C12.1727 13.9041 11.9137 13.6629 11.8655 13.3658C11.8096 13.0104 12.0432 12.6981 12.3657 12.6295V9.25762C12.3657 9.23477 12.3352 9.22715 12.3251 9.24493L9.4483 13.6934C9.2401 14.0158 9.31881 14.4525 9.62604 14.6861C10.3801 15.2549 10.8422 15.9252 11.0327 16.7275H13.9678C14.1583 15.9252 14.6204 15.2549 15.3745 14.6861C15.6842 14.4525 15.763 14.0158 15.5522 13.6934L12.678 9.24493Z" fill="white"/>
<path d="M18.091 11.6646C17.7305 9.55723 16.207 7.84336 14.2063 7.21113C15.2168 7.21367 16.2096 7.21621 17.0881 7.21621C17.1592 7.67832 17.5578 8.03125 18.0377 8.03125C18.5684 8.03125 19 7.59961 19 7.06895C19 6.53828 18.5684 6.10664 18.0377 6.10664C17.5502 6.10664 17.1465 6.47227 17.0855 6.94453C16.2527 6.94199 14.9654 6.93945 13.5842 6.93691V6.55352C13.5842 6.24883 13.3379 6 13.0332 6H11.9668C11.6621 6 11.4133 6.24883 11.4133 6.55352V6.93691C9.63848 6.93438 8.56445 6.93438 7.90937 6.93691C7.8459 6.46973 7.44473 6.10918 6.9623 6.10918C6.43164 6.10918 6 6.54082 6 7.06895C6 7.59961 6.43164 8.03125 6.9623 8.03125C7.44473 8.03125 7.8459 7.67324 7.91191 7.20859C8.60762 7.20605 9.63594 7.20605 10.8064 7.20605C8.80059 7.83574 7.26953 9.55215 6.90898 11.6646C6.40117 11.6926 6 12.1115 6 12.6244C6 13.1551 6.43164 13.5867 6.9623 13.5867C7.49297 13.5867 7.92461 13.1551 7.92461 12.6244C7.92461 12.1699 7.60723 11.7891 7.18066 11.69C7.56406 9.50898 9.25508 7.77227 11.4158 7.33047V7.61738C11.4158 7.92207 11.6646 8.1709 11.9693 8.1709H13.0332C13.3379 8.1709 13.5867 7.92207 13.5867 7.61738V7.32793C15.7475 7.76973 17.441 9.50645 17.8219 11.6875C17.3979 11.7865 17.0779 12.1674 17.0779 12.6219C17.0779 13.1525 17.5096 13.5842 18.0402 13.5842C18.5709 13.5842 19.0025 13.1525 19.0025 12.6219C19 12.1115 18.5988 11.6926 18.091 11.6646Z" fill="white"/>
</g>
<defs>
<clipPath id="clip0_1056_1027">
<rect width="13" height="13" fill="white" transform="translate(6 6)"/>
</clipPath>
</defs>
</svg>
