<svg fill="none" height="26" viewBox="0 0 26 26" width="26" xmlns="http://www.w3.org/2000/svg"><g fill="#00cb71"><path d="m19.2589 5.24959c-1.9154 0-3.8309.00304-5.7465-.00456-.2011-.00076-.2865.05566-.3533.25249-.5022 1.48135-1.8549 2.4522-3.39113 2.45334-1.53417.00114-2.89767-.97332-3.39479-2.44821-.07173-.2126-.1697-.25933-.37802-.258-1.44589.00931-2.89197.00836-4.33785.00247-.47714-.0019-.855545-.34825-.90539-.79929-.050225-.45502.25284-.87927.70772-.97731.10844-.02336.22373-.02108.33598-.02108 1.38957-.00133 2.77933-.00475 4.16891.00322.22125.00133.33673-.03799.41873-.28099.48932-1.44867 1.84331-2.414387 3.35388-2.424456 1.52766-.01026 2.89676.940636 3.40126 2.397476.0896.25896.2083.30931.4555.30893 3.7745-.00741 7.549-.00532 11.3237-.00437.1216 0 .2464-.0038.3641.02089.442.09253.7468.50443.7133.94767-.0343.45408-.4075.81601-.8773.82855-.4316.01159-.8637.00323-1.2955.00323-1.5213 0-3.0423 0-4.5633 0zm-9.49702.8996c.99442.00133 1.80772-.81126 1.80582-1.80471-.0019-.98187-.8042-1.78895-1.78566-1.79617-.99633-.0074-1.81534.79834-1.81953 1.79009-.00437.99383.80608 1.80946 1.79937 1.81079z"/><path d="m7.49164 12.4542c1.91541 0 3.83086-.0036 5.74626.0051.2077.001.2836-.0684.3483-.2591.5-1.4742 1.8614-2.44844 3.396-2.44749 1.5374.00095 2.8881.97029 3.3913 2.45259.0666.1959.1507.2546.3526.2534 1.4365-.0087 2.8731-.0074 4.3096-.0034.6876.0019 1.133.6112.9009 1.2196-.1391.3645-.4692.579-.9096.5796-1.4273.0019-2.8545.0057-4.2815-.0045-.212-.0016-.305.0541-.3756.2619-.5024 1.4782-1.86 2.4471-3.3971 2.4446-1.533-.0024-2.8925-.9794-3.389-2.4567-.0676-.2012-.1587-.2489-.3558-.2485-3.79336.0055-7.58672.0042-11.38007.003-.13089 0-.26559.0044-.39191-.0233-.45489-.0996-.75662-.5278-.704111-.9804.052508-.4533.428061-.793.908621-.7945 1.64317-.0052 3.28635-.0021 4.92952-.0021.30059.0002.60118.0002.90159.0002zm11.29046.9191c.0082-.9955-.7977-1.814-1.7908-1.8191-.9845-.0051-1.8003.7896-1.8142 1.7673-.0141.9963.7857 1.8222 1.7763 1.8336.9964.0114 1.8207-.7917 1.8287-1.7818z"/><path d="m19.2501 23.261c-1.9154 0-3.8308.0026-5.7463-.0042-.1873-.0008-.273.045-.3369.2343-.5074 1.4992-1.8608 2.4734-3.40733 2.4712-1.54253-.0023-2.89614-.9831-3.40049-2.4823-.0605-.1795-.14021-.2236-.316-.2228-1.44589.0064-2.89196.0068-4.33785.0021-.69954-.0023-1.150998-.6393-.88408-1.2483.168369-.3837.48114-.5534.89892-.5524 1.42724.003 2.85448-.0042 4.28153.0068.21498.0017.30364-.06.37308-.265.49921-1.4725 1.86405-2.4452 3.39954-2.442 1.52618.0033 2.87708.9671 3.37768 2.4319.0746.2185.1727.2751.3946.2747 3.8215-.0074 7.643-.0061 11.4645-.0045.7089.0003 1.163.6049.9254 1.2225-.1399.3635-.4703.5767-.9115.5772-1.6339.0017-3.2675.0008-4.9014.0008-.2912 0-.5823 0-.8734 0zm-7.6824-.8884c.0051-.9952-.8032-1.8102-1.79747-1.8125-.98377-.0023-1.7967.7953-1.80793 1.7737-.01141.9956.79181 1.8184 1.78301 1.827.99609.0085 1.81729-.7972 1.82239-1.7882z"/></g></svg>