<svg width="36" height="24" viewBox="0 0 36 24" fill="none" xmlns="http://www.w3.org/2000/svg">
<path d="M1.87174 24H34.1283C35.1652 23.9438 36 23.1125 36 22.1062V1.89375C36 0.85625 35.1196 0.00625 34.037 0H1.96304C0.880435 0.00625 0 0.85625 0 1.89375V22.1C0 23.1125 0.834782 23.9438 1.87174 24Z" fill="#FEFEFE"/>
<path d="M15.4826 14.3938V24H20.4913V14.3938H36V9.59375H20.4913V0H15.4826V9.59375H0V14.3938H15.4826Z" fill="#C8102E"/>
<path d="M22.1609 7.76875V0H34.05C34.8718 0.0125 35.5761 0.50625 35.8631 1.2L22.1609 7.76875Z" fill="#012169"/>
<path d="M22.1609 16.2312V24H34.1283C34.9174 23.9562 35.5826 23.4687 35.8631 22.8L22.1609 16.2312Z" fill="#012169"/>
<path d="M13.8131 16.2312V24H1.87175C1.08261 23.9562 0.410876 23.4687 0.136963 22.7875L13.8131 16.2312Z" fill="#012169"/>
<path d="M13.8131 7.76875V0H1.95001C1.12827 0.0125 0.417398 0.5125 0.136963 1.2125L13.8131 7.76875Z" fill="#012169"/>
<path d="M0 7.99995H4.98913L0 5.6062V7.99995Z" fill="#012169"/>
<path d="M36 8H30.9848L36 5.59375V8Z" fill="#012169"/>
<path d="M36 16H30.9848L36 18.4062V16Z" fill="#012169"/>
<path d="M0 16H4.98913L0 18.3937V16Z" fill="#012169"/>
<path d="M36 2.03125L23.5761 8H26.3544L36 3.375V2.03125Z" fill="#C8102E"/>
<path d="M12.3978 16H9.61957L0 20.6125V21.9563L12.4239 16H12.3978Z" fill="#C8102E"/>
<path d="M6.86087 8.00635H9.63913L0 3.38135V4.71885L6.86087 8.00635Z" fill="#C8102E"/>
<path d="M29.1065 15.9937H26.3282L36 20.6374V19.2999L29.1065 15.9937Z" fill="#C8102E"/>
</svg>
