<svg fill="none" height="24" viewBox="0 0 23 24" width="23" xmlns="http://www.w3.org/2000/svg"><path clip-rule="evenodd" d="m8.92931 6.69043c.71219-.77684 1.20939-1.44954 2.31129-1.58183 2.0586-.24487 3.9506 1.96181 2.9105 4.13471-.2956.61922-.8976 1.35669-1.5641 2.07719-.731.7937-1.5399 1.5706-2.107 2.1589l-1.54531 1.6071-1.27925-1.2891c-1.53725-1.5509-4.03931-3.5042-4.13069-5.922-.05644-1.69442 1.22013-2.78087 2.6875-2.76117 1.3115.02252 1.86781.70366 2.71706 1.5762z" fill="#ee373e" fill-rule="evenodd"/><path d="m3.30943 16.1986c3.37013 3.5296 8.83647 3.5296 12.20667 0 3.3701-3.5295 3.3701-9.25451 0-12.78407-1.3841-1.44954-3.1229-2.30238-4.9235-2.561326 3.0288-.270206 6.1436.807806 8.4602 3.236836 4.171 4.36833 4.171 11.45276 0 15.82116-4.171 4.3683-10.93543 4.3683-15.10643 0-2.322-2.4347-3.348625-5.7053-3.087938-8.8831.244558 1.8915 1.061558 3.7182 2.450998 5.1705z" fill="#405367"/></svg>