<svg fill="none" height="24" viewBox="0 0 24 24" width="24" xmlns="http://www.w3.org/2000/svg"><path d="m18.9285 0h-13.85701c-2.80091 0-5.07149 2.27067-5.07149 5.07157v13.85683c0 2.8009 2.27058 5.0716 5.07149 5.0716h13.85701c2.8009 0 5.0715-2.2707 5.0715-5.0716v-13.85683c0-2.8009-2.2706-5.07157-5.0715-5.07157z" fill="#0083ab"/><path d="m5.25 11.3529h.75v-.7647c0-.2028.07902-.3973.21967-.5407s.33142-.22397.53033-.22397.38968.08057.53033.22397.21967.3379.21967.5407v.7647h.75c.19891 0 .38968.0806.53033.224s.21967.3379.21967.5407c0 .2029-.07902.3974-.21967.5408s-.33142.224-.53033.224h-.75v.7647c0 .2028-.07902.3973-.21967.5407s-.33142.224-.53033.224-.38968-.0806-.53033-.224-.21967-.3379-.21967-.5407v-.7647h-.75c-.19891 0-.38968-.0806-.53033-.224s-.21967-.3379-.21967-.5408c0-.2028.07902-.3973.21967-.5407s.33142-.224.53033-.224zm5.775 1.3153c-.4002-.3532-.7212-.79-.9412-1.2808-.21995-.4909-.33381-1.0242-.3338-1.56387 0-1.01406.3951-1.98659 1.0983-2.70364.7033-.71706 1.6571-1.11989 2.6517-1.11989s1.9484.40283 2.6517 1.11989c.7032.71705 1.0983 1.68958 1.0983 2.70364 0 .53967-.1139 1.07297-.3338 1.56387-.22.4908-.541.9276-.9412 1.2808 1.0499.4848 1.9407 1.2676 2.5658 2.2548.6251.9873.9581 2.1372.9592 3.3123 0 .2028-.079.3973-.2197.5407-.1406.1434-.3314.224-.5303.224s-.3897-.0806-.5303-.224c-.1407-.1434-.2197-.3379-.2197-.5407 0-1.2169-.4741-2.3839-1.318-3.2444-.8439-.8604-1.9885-1.3438-3.182-1.3438s-2.3381.4834-3.182 1.3438c-.84389.8605-1.318 2.0275-1.318 3.2444 0 .2028-.07902.3973-.21967.5407s-.33142.224-.53033.224-.38968-.0806-.53033-.224-.21967-.3379-.21967-.5407c.0011-1.1751.33412-2.325.95924-3.3123.62511-.9872 1.51586-1.77 2.56576-2.2548zm2.475-.5506c.445 0 .88-.1345 1.25-.3866s.6584-.6104.8287-1.0295c.1703-.4192.2149-.88052.1281-1.32553-.0869-.44502-.3011-.85379-.6158-1.17463-.3147-.32083-.7156-.53933-1.152-.62785-.4365-.08852-.8889-.04309-1.3.13055-.4112.17364-.7626.46768-1.0098.84495-.2472.37726-.3792.82081-.3792 1.27454 0 .60847.2371 1.19197.659 1.62217.422.4302.9943.6719 1.591.6719z" fill="#fff"/></svg>