<svg fill="none" height="20" viewBox="0 0 25 20" width="25" xmlns="http://www.w3.org/2000/svg"><path d="m12.5006 4.74927-8.55953 6.82803c0 .0097-.00248.0239-.0075.0432-.0049.0191-.00754.0331-.00754.0429v6.9142c0 .2496.09433.466.2829.6482.18858.1822.41186.274.66987.274h5.7161v-5.5315h3.8113v5.5317h5.7161c.258 0 .4816-.0916.6699-.2742.1886-.182.2832-.3985.2832-.6482v-6.9142c0-.0383-.0055-.0672-.015-.0861z" fill="#35495e"/><g fill="#446f9c"><path d="m17.2637 3.81317-3.6322-2.938636c-.3172-.249707-.6944-.374534-1.1311-.374534s-.8138.124827-1.1314.374534l-10.70358 8.628526c-.09919.07668-.153584.17986-.163719.30959-.01008.12953.024636.24275.104151.33865l.922908 1.066c.07951.0864.18361.1392.31266.1585.11914.0097.23822-.024.35742-.1008l10.30126-8.31173 10.3014 8.31173c.0795.0669.1835.1004.3125.1004h.0448c.1289-.019.2327-.0721.3126-.1583l.9231-1.0659c.0794-.0961.1141-.20908.1038-.33876-.0102-.12936-.0648-.23254-.1638-.30938l-3.2599-2.62168z"/><path d="m19.9883 8.2021-1.5814-1.03983c-.4044-.30296-.7536-.50906-1.2211-.92663-.1308-.11685-.252-.25294-.252-.43781v-4.01633c0-.2844.2383-.51496.5323-.51496h2.7464c.2939 0 .5322.23056.5322.51496v6.07361c0 .01424-.0006.02833-.0017.04225-.0296.35195-.4661.52091-.7547.30474z"/></g></svg>