<svg fill="none" height="24" viewBox="0 0 24 24" width="24" xmlns="http://www.w3.org/2000/svg"><path d="m18.9285 0h-13.85701c-2.80091 0-5.07149 2.27067-5.07149 5.07157v13.85683c0 2.8009 2.27058 5.0716 5.07149 5.0716h13.85701c2.8009 0 5.0715-2.2707 5.0715-5.0716v-13.85683c0-2.8009-2.2706-5.07157-5.0715-5.07157z" fill="#e76f51"/><path d="m11.3 9.9h1.4v-1.4h-1.4m.7 9.1c-3.087 0-5.6-2.513-5.6-5.6s2.513-5.6 5.6-5.6 5.6 2.513 5.6 5.6-2.513 5.6-5.6 5.6zm0-12.6c-.9193 0-1.8295.18106-2.67878.53284-.84928.35179-1.62096.8674-2.27097 1.51741-1.31275 1.31276-2.05025 3.09325-2.05025 4.94975s.7375 3.637 2.05025 4.9497c.65001.6501 1.42169 1.1657 2.27097 1.5175.84928.3517 1.75948.5328 2.67878.5328 1.8565 0 3.637-.7375 4.9497-2.0503 1.3128-1.3127 2.0503-3.0932 2.0503-4.9497 0-.9193-.1811-1.8295-.5328-2.67878-.3518-.84928-.8674-1.62096-1.5175-2.27097-.65-.65001-1.4216-1.16562-2.2709-1.51741-.8493-.35178-1.7595-.53284-2.6788-.53284zm-.7 10.5h1.4v-4.2h-1.4z" fill="#fff"/></svg>