<svg fill="none" height="24" viewBox="0 0 24 24" width="24" xmlns="http://www.w3.org/2000/svg"><path d="m2.79642 16.5053c3.78683 3.7868 9.92638 3.7868 13.71328 0 3.7868-3.7868 3.7868-9.9264 0-13.71324-1.5553-1.55522-3.5074-2.471088-5.5305-2.7488507 3.4017-.2885233 6.903.8678217 9.506 3.4707907 4.6864 4.68643 4.6864 12.2846 0 16.9711-4.6865 4.6864-12.28466 4.6864-16.9711 0-2.608473-2.6085-3.764318-6.1193-3.4690382-9.5278.2750102 2.0292 1.1916282 3.9883 2.7513582 5.548z" fill="#35495e"/><path d="m9.82887 16.1059c-.22597-.076-.46569-.1256-.67539-.2334-.48821-.251-.78725-.6649-.92763-1.1942-.00375-.0145-.00325-.0302-.00576-.0548h3.63891c-.0405.2252-.1271.4299-.2509.6181-.3111.4727-.7453.758-1.307.8443-.0183.0028-.0353.013-.0528.0198-.1399.0002-.27955.0002-.41943.0002z" fill="#41b883"/><path d="m10.0385 14.1197c-1.34754 0-2.69482.0005-4.04234-.0003-.46419-.0002-.81327-.2595-.90461-.6839-.07532-.3501.03904-.6419.30905-.8743.28201-.243.51573-.5258.70366-.8471.31105-.532.45493-1.1085.45643-1.72261.00126-.48145-.0055-.96316.00351-1.44436.03078-1.62579 1.26094-3.04839 2.86746-3.3174.08859-.01476.11762-.04304.11361-.13137-.0065-.14714-.005-.29528 0-.44267.00926-.26926.22246-.4767.48723-.47945.2702-.00276.4894.20519.499.47945.0055.15515.0045.31079.0007.46594-.0015.06807.022.09234.0898.1046 1.5002.268 2.6243 1.41309 2.857 2.91526.0295.19068.0323.38662.0355.5803.0088.524-.0117 1.04949.021 1.57201.0559.8888.4375 1.6315 1.0986 2.2268.1944.1752.3458.3686.3676.6376.0438.5428-.3423.9567-.8979.9607-.5087.0035-1.0174.0008-1.5262.0008-.846 0-1.6926 0-2.5391 0z" fill="#41b883"/><path d="m13.0479 8.55268c.7321 0 1.3255-.59345 1.3255-1.3255 0-.73206-.5934-1.32551-1.3255-1.32551-.732 0-1.3255.59345-1.3255 1.32551 0 .73205.5935 1.3255 1.3255 1.3255z" fill="#fcbd05"/></svg>