<svg fill="none" height="24" viewBox="0 0 24 24" width="24" xmlns="http://www.w3.org/2000/svg"><path d="m18.9285 0h-13.85701c-2.80091 0-5.07149 2.27067-5.07149 5.07157v13.85683c0 2.8009 2.27058 5.0716 5.07149 5.0716h13.85701c2.8009 0 5.0715-2.2707 5.0715-5.0716v-13.85683c0-2.8009-2.2706-5.07157-5.0715-5.07157z" fill="#0096ff"/><path d="m15.3615 13.5865c0 .6132.1742.8578.63.8578 1.0157 0 1.6625-1.2959 1.6625-3.4511 0-3.2941-2.3975-4.87107-5.3908-4.87107-3.07924 0-5.87997 2.06759-5.87997 5.97497 0 3.7322 2.45 5.7647 6.21247 5.7647 1.2775 0 2.135-.1402 3.4468-.5782l.2815 1.1732c-1.295.4213-2.679.5432-3.7458.5432-4.93497 0-7.5782-2.7159-7.5782-6.9036 0-4.22281 3.06323-7.0964 7.2807-7.0964 4.3925 0 6.7193 2.62829 6.7193 5.8523 0 2.7334-.8568 4.8185-3.5518 4.8185-1.2257 0-2.03-.4906-2.135-1.5777-.315 1.209-1.155 1.5777-2.2932 1.5777-1.5225 0-2.8-1.1747-2.8-3.5394 0-2.38297 1.12073-3.8548 3.1332-3.8548 1.0675 0 1.7325.42052 2.0286 1.08635l.5082-.92866h1.47v5.15221zm-2.1518-2.3129c0-.963-.7182-1.36674-1.3132-1.36674-.6475 0-1.3643.52494-1.3643 2.06754 0 1.2266.5425 1.9099 1.3643 1.9099.5775 0 1.3132-.3679 1.3132-1.3842z" fill="#fff"/></svg>