<svg fill="none" height="17" viewBox="0 0 17 17" width="17" xmlns="http://www.w3.org/2000/svg"><path d="m12.7225 12.249c-1.7775.0242-3.49282-.6537-4.77347-1.8865-1.28065-1.23276-2.02324-2.92094-2.06653-4.69792.00034-.87192.17727-1.73473.52015-2.53641.34287-.80169.84457-1.52563 1.47485-2.12817-1.86848.18447-3.60328 1.05156-4.87225 2.43526s-1.98295 3.18679-2.00525 5.06406c.04529 2.02958.89321 3.95838 2.35803 5.36408 1.46481 1.4056 3.42709 2.1734 5.45697 2.1352 1.5116.0132 2.9947-.4118 4.2698-1.2236 1.2751-.8119 2.2877-1.9758 2.9152-3.3509-1.0083.5394-2.1339.8227-3.2775.8249z" fill="#ff2b57" stroke="#ff2b57" stroke-linecap="round" stroke-linejoin="round"/></svg>