<svg fill="none" height="20" viewBox="0 0 23 20" width="23" xmlns="http://www.w3.org/2000/svg" xmlns:xlink="http://www.w3.org/1999/xlink"><clipPath id="a"><path d="m.793701.382019h21.4126v19.2359h-21.4126z"/></clipPath><g clip-path="url(#a)"><path d="m1.05347 12.6905c0 .2964.29996.5375.67178.5375h3.80572l-1.03111.8288c-.27808.2236-.29371.5752-.03124.7861.26246.211.6999.1985.97799-.0251l2.1497-1.7279c.27808-.2235.29371-.5752.03124-.7861-.00625-.0051-.01562-.0076-.02187-.0151-.00937-.0075-.01562-.0151-.025-.0251l-2.12158-1.7054c-.27496-.221-.70927-.231-.97174-.0201-.26246.211-.24996.5601.025.7811l1.03111.8288h-3.82135c-.36869.0051-.66865.2462-.66865.5425z" fill="#41b883"/><path d="m1.05347 7.31037c0 .29636.29996.53747.67178.53747h3.80572l-1.03111.82881c-.27808.22353-.29371.57515-.03124.78612.26246.21097.6999.19841.97799-.02512l2.1497-1.72794c.27808-.22353.29371-.57515.03124-.78612-.00625-.00502-.01562-.00753-.02187-.01507-.00937-.00753-.01562-.01507-.025-.02511l-2.12158-1.70534c-.27496-.22102-.70927-.23107-.97174-.0201-.26246.21097-.24996.56008.025.7811l1.03111.82881h-3.82135c-.36869.00502-.66865.24613-.66865.54249z" fill="#41b883"/><g fill="#405367"><path d="m2.62399 3.267h17.69131c.9123 0 1.6591-.60026 1.6591-1.33364 0-.73337-.7468-1.333629-1.6591-1.333629h-17.69131c-.91238 0-1.659146.600259-1.659146 1.333629 0 .73338.746766 1.33364 1.659146 1.33364z"/><path d="m10.1172 8.64711h10.1985c.9124 0 1.6592-.60026 1.6592-1.33363 0-.73338-.7468-1.33364-1.6592-1.33364h-10.1985c-.91242 0-1.65919.60026-1.65919 1.33364 0 .73337.74677 1.33363 1.65919 1.33363z"/><path d="m10.1172 14.0268h10.1985c.9124 0 1.6592-.6003 1.6592-1.3336 0-.7334-.7468-1.3337-1.6592-1.3337h-10.1985c-.91242 0-1.65919.6003-1.65919 1.3337 0 .7333.74677 1.3336 1.65919 1.3336z"/><path d="m2.62423 19.4065h17.69127c.9124 0 1.6592-.6003 1.6592-1.3337 0-.7333-.7468-1.3336-1.6592-1.3336h-17.69127c-.91237 0-1.659142.6003-1.659142 1.3336 0 .7334.746772 1.3337 1.659142 1.3337z"/></g></g></svg>