<svg fill="none" height="24" viewBox="0 0 24 24" width="24" xmlns="http://www.w3.org/2000/svg"><rect fill="#41b883" height="24" rx="5" width="24"/><path clip-rule="evenodd" d="m24 14.1733v4.8267c0 2.7614-2.2386 5-5 5h-1.7825l-10.4875-10.4875c-.4525-.455-.73-1.0775-.73-1.7625 0-1.3775 1.1225-2.5 2.5-2.5.35235.00014.70069.07483 1.02212.21918.32143.14434.60868.35506.84288.61832l.5225.5225 3.1625-1.1625c-.0325-.145-.05-.2925-.05-.4475 0-1.1025.8975-2 2-2 .5265.00035 1.0315.20884 1.405.58l.0075.0075z" fill="#2d9667" fill-rule="evenodd"/><path d="m18.0012 15.25c0 1.1025-.8975 2-2 2s-2-.8975-2-2c0-.2125.0325-.4175.0975-.61l-3.45-1.6125c-.4375.73-1.23498 1.2225-2.14748 1.2225-1.3775 0-2.5-1.1225-2.5-2.5s1.1225-2.5 2.5-2.5c.9875 0 1.84248.5775 2.24748 1.41l3.3025-1.2125c-.0325-.145-.05-.2925-.05-.4475 0-1.1025.8975-2 2-2s2 .8975 2 2-.8975 2-2 2c-.7725 0-1.4425-.44-1.775-1.0825l-3.305 1.2125c.0525.1975.08.405.08.62 0 .29-.05.5675-.14.825l3.45 1.61c.1796-.2861.4289-.5219.7244-.6854.2956-.1636.6278-.2494.9656-.2496 1.1025 0 2 .8975 2 2z" fill="#fff"/></svg>