<svg fill="none" height="89" viewBox="0 0 90 89" width="90" xmlns="http://www.w3.org/2000/svg"><path d="m11.034 61.0205c14 14 36.7 14 50.7 0s14-36.7 0-50.7c-5.75-5.74999-12.97-9.13999-20.45-10.15999 12.58-1.070001 25.52 3.21002 35.14 12.82999 17.33 17.33 17.33 45.42 0 62.74-17.33 17.33-45.42 17.33-62.74 0-9.63998-9.64-13.919986-22.62-12.819986-35.22 1.019996 7.5 4.410016 14.74 10.169986 20.51z" fill="#35495e"/><path d="m37.034 59.5406c-.84-.28-1.72-.46-2.5-.86-1.8-.93-2.91-2.46-3.43-4.42-.01-.05-.01-.1101-.02-.2001h13.45c-.15.83-.47 1.5901-.93 2.2901-1.15 1.75-2.76 2.8-4.83 3.12-.07.01-.13.05-.2.07-.5 0-1.02 0-1.54 0z" fill="#41b883"/><path d="m37.814 52.2005c-4.98 0-9.96 0-14.94 0-1.72 0-3.01-.96-3.34-2.53-.28-1.29.14-2.37 1.14-3.23 1.04-.9 1.91-1.94 2.6-3.13 1.15-1.97 1.68-4.1 1.69-6.37 0-1.78-.0201-3.56.0099-5.34.11-6.01 4.6601-11.27 10.6001-12.26.33-.05.43-.16.42-.49-.02-.54-.02-1.09 0-1.64.03-1 .82-1.76 1.8-1.77 1-.01 1.81.76 1.84 1.77.02.57.02 1.15 0 1.72-.01.25.08.34.33.39 5.55.99 9.6999 5.22 10.56 10.78.11.71.12 1.43.13 2.15.03 1.94-.04 3.88.08 5.81.21 3.29 1.62 6.03 4.06 8.23.72.65 1.28 1.36 1.36 2.36.16 2.01-1.2701 3.54-3.3201 3.55-1.88.01-3.76 0-5.64 0-3.12 0-6.2499 0-9.3799 0z" fill="#41b883"/><path d="m48.9339 31.6205c2.7062 0 4.9-2.1938 4.9-4.8999 0-2.7062-2.1938-4.9-4.9-4.9s-4.9 2.1938-4.9 4.9c0 2.7061 2.1938 4.8999 4.9 4.8999z" fill="#fcbd05"/></svg>