<svg fill="none" height="15" viewBox="0 0 15 15" width="15" xmlns="http://www.w3.org/2000/svg" xmlns:xlink="http://www.w3.org/1999/xlink"><linearGradient id="a"><stop offset="0" stop-color="#226c3b"/><stop offset="1" stop-color="#7bd098"/></linearGradient><linearGradient id="b" gradientUnits="userSpaceOnUse" x1="10.9615" x2="1.73665" xlink:href="#a" y1="6.48375" y2="6.89167"/><linearGradient id="c" gradientUnits="userSpaceOnUse" x1="13.8548" x2="10.975" xlink:href="#a" y1="6.26191" y2="6.30923"/><path d="m11.3957 12.24c.001.6183.0068 1.2366.0011 1.8548-.0026.286-.194.5042-.493.5948-.0241.0067-.0484.0136-.0726.0203-.0542 0-.1084 0-.1625 0-.0244-.0065-.0489-.0129-.0733-.0193-.98286-.3456-1.96622-.6896-2.94763-1.0388-.10472-.0372-.19274-.0344-.29654.0026-.98141.3487-1.96465.6922-2.94749 1.0373-.03312.006-.06625.0121-.09937.0183-.03612 0-.07224 0-.10836 0-.033-.0062-.06599-.0124-.09898-.0186-.32144-.0975-.49683-.3234-.49722-.6488-.00053-.6016.00182-1.2032.00286-1.8047.03091.0058.06338.0074.09259.0177 1.19045.4211 2.38037.8434 3.57095 1.2639.11241.0397.2196.091.35091.0428.4598-.1686.92273-.3288 1.38514-.4901.79767-.2782 1.59564-.5548 2.39344-.8322z" fill="#35495e"/><g fill="#fec780"><path d="m4.09704 14.6912.09897.0186c-.03612 0-.07224 0-.10836 0 .00195-.0068.00508-.013.00939-.0186z"/><path d="m4.40369 14.6915c.00443.0054.00743.0115.009.0184-.03613 0-.07225 0-.10837 0 .03312-.0061.06625-.0122.09937-.0184z"/><path d="m10.5874 14.7098c.0014-.0069.004-.0133.0078-.0193.0245.0064.0489.0129.0734.0193-.0271 0-.0542 0-.0812 0z"/><path d="m10.8312 14.7099c.0242-.0067.0485-.0136.0726-.0203.0033.0066.0061.0133.0086.0203-.0271 0-.0541 0-.0812 0z"/><path d="m2.49475 5.31936c.04877-.15232.01982-.30864.02087-.46277.00299-.4324.40072-.75977.81423-.62735 1.31941.42233 2.63322.86171 3.94846 1.29643.08437.02791.16314.07209.24451.10865-.00705.06137-.02035.12274-.02048.1841-.0026 2.12313-.00391 4.24628-.00547 6.36948-.21308.1817-.44898.1974-.70861.1109-1.25513-.4185-2.51182-.8328-3.76786-1.2488-.34465-.1142-.50153-.3294-.50179-.689-.00104-1.62402-.00156-3.24795-.00365-4.87202.00026-.05658-.01304-.11317-.02021-.16962zm1.33976.17427c-.13614.01202-.21204.06938-.23134.17893-.02151.12261.03652.21033.15466.24818.19248.0615.38782.11434.58121.17299.73481.22285 1.4695.44622 2.20406.67011.13836.04212.24855.00737.29289-.13126.0442-.13797-.02465-.23151-.16183-.27582-.03847-.0124-.07694-.02493-.11567-.03669-.70026-.21355-1.40053-.42723-2.10105-.64027-.21412-.06511-.42915-.12829-.62293-.18617zm-.00157 1.71373c-.13379.01111-.21008.06808-.23003.17763-.0223.12222.03391.21317.1527.24947.93682.2859 1.87415.57038 2.81266.85124.16939.05065.31727-.09314.27541-.25567-.03038-.11795-.13053-.15025-.23107-.18099-.72635-.22182-1.45269-.4439-2.17929-.66482-.20578-.06266-.41273-.1217-.60038-.17686zm3.01543 1.90673c-.00495-.08979-.0682-.15516-.17408-.18733-.92873-.28293-1.8572-.56741-2.78658-.8484-.13157-.03979-.23785.00969-.27854.14134-.04055.13113.01956.22802.14931.27324.11867.04147.24073.07377.36122.1102.80863.2443 1.61712.48912 2.42588.73264.16718.05039.30462-.0416.30279-.22169zm.00183.90281c-.00339-.14045-.07681-.2035-.193-.23877-.91647-.27776-1.83255-.55733-2.74836-.83703-.13771-.04198-.24946-.00956-.29667.12764-.04929.14328.01917.24301.16327.28681.92898.28215 1.85758.56521 2.788.84245.16105.0479.25742-.0337.28676-.1811zm-3.00982-3.66479c-.13262.00439-.211.05943-.23551.16743-.02569.1133.01838.20619.13079.24857.11319.04263.23134.07273.34739.10787.82115.24882 1.6423.49713 2.46318.7466.11267.03423.2076.01472.27059-.08682.05581-.08992.0489-.18784-.03091-.25593-.05503-.04689-.13275-.0726-.20447-.09469-.71265-.21976-1.42608-.43719-2.13952-.65436-.2059-.06279-.41259-.12273-.60154-.17867zm3.01191 4.51029c-.01005-.1285-.07746-.1919-.18883-.2258-.92351-.2803-1.84637-.5631-2.76988-.84335-.13105-.03979-.23864.00297-.28245.13371-.04577.13644.01578.23534.15192.28214.10601.0363.2149.0647.32248.097.82923.2489 1.65794.499 2.48783.7453.17095.0507.24972-.0435.27893-.189z"/></g><path d="m7.49707 12.1878c.00157-2.1231.00287-4.24628.00548-6.36954.00013-.06136.0133-.12273.02047-.18409.33305-.20258.71643-.27428 1.07908-.39765.96994-.32983 1.9497-.63162 2.9167-.96881.5687-.19831 1.0314.18707.9672.68988-.0152.11912-.0305.24779.0187.3682-.0067.05658-.0193.1133-.0193.17001-.0015 1.62872-.0016 3.25743-.0021 4.8863-.0002.3302-.1651.5547-.4828.6621-.4169.1409-.8335.2829-1.2501.4244-.84453.2742-1.69071.5436-2.53246.8259-.26759.0898-.50114.065-.72087-.1067zm3.90073-6.49382c-.031-.14056-.1209-.22841-.2774-.1819-.9363.27828-1.87085.56237-2.80505.84737-.13001.03966-.19561.13642-.15479.26949.04016.13087.14475.18319.27763.14301.93029-.28202 1.85981-.56689 2.78931-.85137.1059-.03255.1659-.10283.1703-.2266zm.0013.85667c-.0304-.13294-.1151-.23035-.2811-.181-.9365.27828-1.87119.56211-2.80539.84737-.12975.03966-.19391.13836-.15153.27117.0416.13061.14644.18074.27919.14043.9303-.28241 1.85983-.56715 2.78943-.85176.1002-.03074.159-.09754.1694-.22621zm-.0001 3.42563c-.0301-.13229-.1173-.22763-.2735-.18138-.9399.2781-1.87777.5633-2.81524.8498-.12949.0396-.19234.1398-.15009.272.0416.1303.1467.1812.2788.141.92925-.2819 1.85773-.5666 2.78633-.8508.1056-.0323.167-.1006.1737-.23062zm-.0009-2.5647c-.0302-.14495-.1205-.23267-.2846-.18371-.9346.27841-1.86786.56121-2.8005.84581-.12962.03954-.19391.13772-.1527.27027.04055.13048.14527.18268.27763.1425.93303-.2828 1.86527-.56844 2.79737-.85447.0999-.03075.1561-.10103.1628-.2204zm-3.01964 1.94549c.02295-.00568.0536-.01189.08346-.02106.91125-.27815 1.82208-.5572 2.73368-.83444.1448-.04406.2387-.12713.1873-.2828-.0511-.15478-.1756-.16692-.3202-.12209-.4121.12777-.8259.2505-1.23886.37543-.49905.1509-.9981.30192-1.49702.45333-.12336.03747-.19417.11808-.17382.24857.01799.11588.09884.17427.22546.18306zm.00026.85723c.02282-.0057.05347-.0121.08333-.0211.91138-.27828 1.82255-.55734 2.73415-.83471.1451-.04418.2384-.12777.1867-.28319-.0513-.15477-.176-.16665-.3205-.12182-.4122.12777-.826.2505-1.23908.37543-.49918.15102-.99836.30192-1.49728.45346-.12349.03746-.19378.1186-.1733.24893.01825.1159.09923.1743.22598.183z" fill="#fe8568"/><path d="m7.49705 12.1878c.21973.1717.45328.1965.72074.1068.84175-.2823 1.68793-.5516 2.53241-.8259.0039.0717.0669.1018.1076.147.1842.2048.4142.3672.5697.5987-.0105.0086-.0211.0172-.0317.0258-.7978.2773-1.59584.5539-2.39325.832-.46241.1614-.92534.3214-1.38514.49-.13131.0482-.2385-.0031-.35091-.0427-1.19058-.4206-2.3805-.8429-3.57095-1.2639-.02921-.0104-.06168-.012-.09258-.0177-.69544-.2478-1.39062-.4966-2.08657-.7427-.36957-.1308-.51679-.3314-.5164-.7173.0017-1.71657.00352-3.433.00522-5.14957.00678-.02558.01343-.05116.02021-.07674.07798-.34261.44219-.56314.78424-.46328.2312.06744.45693.15335.68514.23113.0073.05658.0206.11304.02073.16962.00196 1.62407.00261 3.248.00365 4.87204.00026.3596.15701.5748.50179.689 1.25604.416 2.5126.8303 3.76786 1.2488.25924.0863.49514.0705.70821-.1111z" fill="url(#b)"/><path d="m11.4276 12.2142c-.1556-.2315-.3854-.3939-.5698-.5986-.0407-.0452-.1036-.0754-.1076-.1471.4168-.1414.8333-.2834 1.2502-.4243.3177-.1074.4826-.3319.4828-.6622.0005-1.62866.0006-3.25738.0021-4.88622 0-.05672.0126-.11343.0193-.17002.2863-.08462.5504-.24959.8588-.25425.3508-.00516.6349.27919.6352.6271.0013 1.72083.0022 3.44165.0004 5.16249-.0003.2768-.1359.4873-.395.5825-.7222.2658-1.4506.515-2.1764.7706z" fill="url(#c)"/><path d="m8.28672 1.21144c-.78476-.04923-1.21796.53562-1.22005 1.05949-.00208.53847.371.97126.92664 1.07203.48719.08837.99889-.2173 1.17585-.70099.01291-.03527.03364-.0677.05059-.10141.00365.03824.00952.07648.01057.11485.02555.98947-.76156 1.78051-1.76331 1.77237-.97541-.00788-1.7427-.82915-1.70032-1.81966.04003-.93586.90095-1.674445 1.87467-1.60339.22638.01654.44363.07635.64406.18642-.00065.00672-.00026.01357.0013.02029z" fill="#fe8568"/><path d="m7.93274 2.06722c.0103-.11744.0742-.19289.19143-.20748.11893-.01473.19782.04793.23407.15838.01109.03359.02621.04897.06038.05982.11189.03566.17513.11382.16026.23125-.01473.11576-.09115.17893-.20981.18953-.17931-.11046-.32484-.25412-.43633-.4315z" fill="#ffcb32"/><path d="m7.93263 2.06721c.11149.17737.25702.32104.43619.43149-.01747.11809-.07798.20103-.20355.21097-.11893.00943-.19404-.05607-.22677-.16652-.00874-.02959-.02165-.0416-.05112-.05039-.11776-.03514-.18335-.11433-.16718-.23745.01552-.11692.09924-.17221.21243-.1881z" fill="#ffcb32"/><path d="m8.28682 1.21145c-.00157-.00672-.00209-.01344-.0013-.02028.01851.00865.03703.01731.05555.02596-.00378.0053-.00978.01576-.01122.01525-.01473-.00594-.02869-.0137-.04303-.02093z" fill="#fec780"/><g fill="#fe8568"><path d="m3.83463 5.49364c.19377.05788.40868.12105.62293.18629.70052.21304 1.40065.42672 2.10105.64028.03873.01175.0772.02428.11566.03669.13719.04431.20604.13771.16183.27582-.04433.13862-.15452.17337-.29288.13126-.73456-.22389-1.46925-.44726-2.20407-.67012-.19338-.05865-.38873-.11149-.5812-.17298-.11815-.03773-.17618-.12558-.15466-.24818.0193-.10981.09533-.16704.23134-.17906z"/><path d="m3.83298 7.20736c.18765.05516.3946.1142.60037.17686.72661.22092 1.45295.443 2.17929.66482.10054.03075.20082.06291.23108.181.04172.16252-.10602.30644-.27541.25567-.93851-.28074-1.87572-.56535-2.81266-.85125-.11893-.0363-.175-.12725-.1527-.24946.01995-.10956.09637-.16653.23003-.17764z"/><path d="m6.84841 9.11409c.00183.18009-.13562.27208-.30293.22169-.80888-.24352-1.61738-.48834-2.42588-.73264-.12049-.03643-.24241-.06873-.36121-.1102-.12975-.04522-.18987-.14211-.14931-.27324.04068-.13178.14696-.18113.27854-.14133.92938.28099 1.85771.56534 2.78657.84839.10602.03217.16926.09754.17422.18733z"/><path d="m6.85024 10.0169c-.02934.1474-.12571.229-.28689.181-.93042-.27726-1.85902-.56032-2.78801-.84247-.14409-.0438-.21256-.14353-.16326-.28681.0472-.13707.15896-.16963.29666-.12764.91595.2797 1.8319.55927 2.74837.83703.11632.0354.18987.09844.19313.23889z"/><path d="m3.84051 6.35211c.18908.05607.39577.11588.60155.17867.71343.21717 1.42687.4346 2.13952.65435.07172.02209.14944.0478.20447.0947.0798.06795.08671.16601.0309.25593-.06298.10154-.15792.12105-.27058.08681-.82089-.24947-1.64217-.49777-2.46318-.74659-.11606-.03514-.2342-.06512-.34739-.10788-.11241-.04237-.15649-.13526-.1308-.24856.02439-.10814.10289-.16304.23551-.16743z"/><path d="m6.85246 10.8624c-.02921.1455-.10797.2397-.27919.1889-.82988-.2464-1.65872-.4965-2.48782-.7453-.10745-.0323-.21634-.0606-.32249-.097-.13614-.0467-.19769-.1457-.15192-.28217.04395-.13061.1514-.1735.28246-.13371.92364.28018 1.84637.56318 2.76988.84338.11162.0338.17891.0974.18908.2259z"/></g><g fill="#66523b"><path d="m11.3976 5.69398c-.0044.12377-.0643.19405-.1704.2266-.9295.28448-1.85903.56935-2.78932.85137-.13288.04031-.23747-.01214-.27763-.14301-.04082-.13307.02478-.22983.15479-.26949.9342-.285 1.86876-.56909 2.80506-.84737.1566-.04664.2465.04134.2775.1819z"/><path d="m11.399 6.55066c-.0106.12855-.0693.19534-.1696.22609-.9296.2846-1.8591.56947-2.7894.85175-.13275.04031-.23759-.00981-.27919-.14043-.04238-.13281.02178-.23151.15153-.27117.93421-.28525 1.86896-.56896 2.80536-.84736.1661-.0491.251.04818.2813.18112z"/><path d="m11.3991 9.97627c-.0067.12993-.0681.19843-.1737.23073-.9286.2841-1.85693.569-2.78631.8509-.1321.04-.23721-.0108-.2788-.1411-.04225-.1323.0206-.2324.15009-.272.93746-.2864 1.87532-.5715 2.81522-.84978.1563-.04638.2434.04883.2735.18125z"/><path d="m11.398 7.41158c-.0067.11937-.0629.18965-.1629.2204-.9321.28603-1.86435.57154-2.79738.85447-.13236.04018-.23707-.01202-.27763-.1425-.0412-.13255.02308-.23073.15271-.27027.93264-.28448 1.8659-.56741 2.8005-.84581.1643-.04897.2546.03876.2847.18371z"/><path d="m8.37834 9.35707c-.12662-.00878-.20747-.06718-.22547-.18319-.02034-.13048.05047-.2111.17383-.24856.49892-.15142.99797-.30244 1.49702-.45334.41298-.12492.82678-.24766 1.23878-.37543.1447-.04482.2692-.03268.3203.12209.0514.15568-.0424.23875-.1874.2828-.9115.27724-1.82235.5563-2.7336.83445-.02986.0093-.06064.0155-.08346.02118z"/><path d="m8.37867 10.2143c-.12675-.0087-.2076-.0671-.22586-.1829-.02047-.1304.04981-.21153.17331-.249.49892-.15154.9981-.30244 1.49728-.45346.4131-.12493.8269-.24766 1.2391-.37543.1445-.04483.2691-.03294.3205.12183.0517.15554-.0415.239-.1867.28318-.9117.27738-1.82279.55643-2.73417.83468-.03.0091-.06077.0154-.08346.0211z"/></g></svg>