<svg fill="none" height="21" viewBox="0 0 21 21" width="21" xmlns="http://www.w3.org/2000/svg"><path d="m10.9546.454559c-5.54506 0-10.04542 4.500361-10.04542 10.045441 0 5.5451 4.50036 10.0454 10.04542 10.0454 5.5451 0 10.0455-4.5003 10.0455-10.0454 0-5.54508-4.5004-10.045441-10.0455-10.045441zm4.6611 6.830901c-.1507 1.58718-.8036 5.44464-1.1351 7.22264-.1407.7534-.4219 1.0046-.6831 1.0347-.5827.0502-1.0247-.3817-1.5872-.7534-.884-.5826-1.3863-.9443-2.24013-1.5068-.9945-.653-.3516-1.0146.22103-1.5972.1506-.1507 2.7223-2.49131 2.7725-2.70226.007-.03195.0061-.06513-.0027-.09664s-.0251-.06041-.0475-.08418c-.0603-.05023-.1407-.03014-.211-.02009-.0904.02009-1.4967.95431-4.23915 2.80267-.40182.2712-.76345.4119-1.08491.4018-.36163-.01-1.04472-.2009-1.55704-.3717-.63286-.2009-1.12509-.3114-1.08491-.663.02009-.1808.27123-.3616.74336-.5525 2.93327-1.27573 4.88205-2.11954 5.85645-2.52136 2.7927-1.16527 3.3653-1.36618 3.747-1.36618.0804 0 .2712.02009.3918.12054.1004.08037.1306.19087.1406.27123-.01.06027.01.24109 0 .38173z" fill="#28a8e9"/></svg>