<svg fill="none" height="21" viewBox="0 0 20 21" width="20" xmlns="http://www.w3.org/2000/svg"><path d="m17.0868 3.37781c-.921-.93028-2.018-1.66788-3.227-2.16976-1.209-.501889-2.5058-.758022-3.8149-.753461-5.48479 0-9.9550148 4.470221-9.9550148 9.955011 0 1.758.4620898 3.4657 1.3259948 4.9725l-1.40635852 5.1634 5.27385852-1.3863c1.45659.7936 3.09399 1.2155 4.76152 1.2155 5.4848 0 9.955-4.4702 9.955-9.955 0-2.66208-1.0346-5.16339-2.9131-7.04189zm-7.0419 15.30929c-1.48671 0-2.9433-.4019-4.21907-1.1553l-.30136-.1808-3.13418.8237.83377-3.0538-.20091-.3114c-.82599-1.319-1.26458-2.8436-1.26572-4.3999 0-4.56061 3.71681-8.27742 8.27747-8.27742 2.21 0 4.2894.86391 5.8464 2.43099.771.76744 1.382 1.68027 1.7975 2.68558.4156 1.00531.6275 2.0831.6235 3.17095.0201 4.5606-3.6968 8.2674-8.2574 8.2674zm4.5406-6.188c-.2512-.1206-1.4767-.7233-1.6977-.8137-.2311-.0804-.3918-.1206-.5626.1205-.1707.2512-.6429.8137-.7835.9744-.1407.1708-.2913.1909-.5425.0603-.2511-.1205-1.05474-.3918-1.99901-1.2356-.74336-.663-1.23559-1.4767-1.38627-1.72779-.14064-.25114-.02009-.38173.1105-.51232.1105-.1105.25113-.29131.37168-.43195s.17077-.25114.25114-.41186c.08036-.17078.04018-.31141-.0201-.43196-.06027-.12054-.56254-1.34609-.76345-1.84836-.20091-.48218-.41186-.42191-.56254-.43195h-.48218c-.17078 0-.43196.06027-.663.31141-.221.25113-.86391.85386-.86391 2.0794 0 1.22555.89404 2.41088 1.01459 2.57168.12054.1707 1.75795 2.6821 4.24925 3.757.5926.2611 1.0547.4118 1.4164.5223.5927.1909 1.1351.1607 1.5671.1005.4821-.0704 1.4766-.6028 1.6776-1.1854.2109-.5826.2109-1.0749.1406-1.1854s-.221-.1607-.4721-.2812z" fill="#25d366"/></svg>